<?xml version="1.0" encoding="UTF-8"?>
<svg xmlns="http://www.w3.org/2000/svg" width="292" height="200" viewBox="0 0 292 200" fill="none">
  <path fill-rule="evenodd" clip-rule="evenodd" d="M213.666 45.6687C213.666 50.6338 196.346 60.1216 181.618 60.1216C158.719 60.1216 134.891 49.1099 123.931 46.6027C111.993 43.8006 101.18 41.4901 92.6659 41.4901C62.8195 41.4901 49.5109 54.3699 50.0981 66.2174C50.3916 71.0351 54.257 74.1321 59.9816 73.0506C66.1466 71.9691 74.8559 66.0699 77.0088 60.9082C77.4491 59.8267 78.7213 59.6792 79.1616 59.9741C80.0913 60.7607 79.7977 61.8422 79.7977 61.8422C79.0149 67.8888 69.7184 84.7015 53.6699 84.7015C44.7159 84.7015 38.6488 76.2951 38.7956 68.0855C38.9424 52.6985 54.5995 37.1641 93.1063 37.1641C100.397 37.1641 108.568 37.8031 117.571 39.3271C127.943 41.1952 153.778 45.5212 174.817 45.8653C182.548 45.8653 192.431 46.1603 200.505 44.9313C209.018 43.5548 207.159 43.2107 210.584 43.2107C213.666 43.1615 213.666 44.3905 213.666 45.6687Z" fill="white"></path>
  <path fill-rule="evenodd" clip-rule="evenodd" d="M272.792 117.294C272.156 117.294 271.08 118.67 270.492 119.457C267.557 122.554 255.325 135.335 248.67 135.63C250.04 135.63 246.371 136.417 246.028 133.467C245.881 131.599 247.398 129.289 248.034 128.01L281.159 69.1172H268.927L248.964 102.988C247.398 99.8911 245.099 92.5663 235.949 92.4189C220.781 92.2714 214.91 102.693 204.39 112.623C201.307 115.426 197.589 119.162 189.075 119.162C184.134 119.162 180.268 115.131 181.198 109.969C181.834 105.938 183.204 103.922 186.14 102.841C187.51 106.872 190.152 109.035 194.653 109.035C199.742 108.887 202.677 104.217 202.873 100.186C202.873 96.7449 200.72 92.4189 194.506 92.1239C188.782 91.8289 184.427 94.4344 178.262 101.612C178.262 101.612 179.828 91.0424 168.183 91.3374C166.96 91.3374 165.687 91.3374 164.464 91.9764C158.104 93.992 149.932 104.266 143.425 112.181C143.719 110.608 143.718 109.084 143.718 107.511C143.718 102.988 142.006 97.089 138.924 93.992C138.287 93.3529 137.7 93.3529 137.064 93.3529C135.058 93.3529 133.346 95.0735 133.346 97.7281C134.911 99.3012 136.917 103.185 136.917 106.921C136.917 110.657 135.841 117.49 134.275 120.145C128.404 130.272 120.967 136.761 112.013 135.384C107.218 134.303 103.989 129.633 104.918 122.652C105.359 118.621 107.854 113.017 110.202 109.576C114.068 104.266 120.429 98.8588 129.676 97.4332C129.676 97.4332 130.116 95.5651 128.893 94.631C128.453 93.8445 127.817 92.9105 125.664 92.9105C112.502 93.3529 104.478 102.841 99.8296 112.181C98.1171 115.426 95.6706 120.096 94.2517 123.045C94.2517 123.045 93.0285 126.487 87.3039 130.813C84.3681 133.123 83.4385 133.91 82.9492 133.762C83.096 134.844 83.8789 136.417 85.2489 137.646C85.6892 137.941 87.2549 137.007 87.891 136.712C95.1814 132.533 95.9153 130.518 95.9153 130.518C97.481 139.219 104.869 143.742 113.089 143.742C124.392 143.742 134.765 133.467 140.783 124.471C147.143 114.983 155.804 105.643 155.804 105.643C159.229 102.398 162.752 100.186 164.954 100.186C166.96 100.334 168.379 102.054 167.889 103.922C167.106 107.167 166.03 110.313 163.877 114.197L146.997 142.955H160.159C167.742 128.65 168.036 128.207 175.473 114.492C177.479 122.111 181.491 125.061 187.999 125.208C193.577 125.356 197.442 125.061 201.601 122.898C200.525 127.273 201.161 131.599 202.531 134.549C204.096 138.137 207.179 142.611 214.763 142.808C223.912 142.808 232.866 138.776 235.509 136.417C236.291 140.939 238.444 143.25 244.169 143.25C255.765 142.955 265.991 130.96 272.156 123.193C273.232 121.816 274.651 119.457 274.651 118.818C274.651 117.933 273.428 117.294 272.792 117.294ZM242.31 113.607C242.31 113.607 237.074 122.455 231.643 127.912C222.053 137.695 215.839 134.45 214.469 133.369C213.099 132.287 211.974 128.404 212.61 124.52C213.05 120.637 216.035 114.098 218.775 110.706C224.353 103.873 231.154 99.2029 236.585 99.842C243.239 100.629 243.875 107.167 240.597 113.213L242.31 113.607Z" fill="white"></path>
  <path fill-rule="evenodd" clip-rule="evenodd" d="M132.304 69.909C132.304 67.4019 130.445 65.0914 127.656 64.5998C122.714 63.8132 118.849 67.8443 118.359 74.53C118.359 76.2506 118.995 78.2662 118.995 78.2662C118.995 78.2662 108.182 80.1342 98.8858 80.5767C110.335 61.1586 120.855 54.3254 123.937 51.5233C124.573 51.0809 126.09 49.3603 126.237 49.0162C126.873 47.4431 125.454 46.509 124.867 46.509C121.148 46.3615 103.191 59.733 89.2958 81.1666C85.724 81.609 70.8986 82.8872 65.9569 88.4914C65.4676 89.1304 65.0272 90.212 65.0272 90.5069C65.3208 91.7359 66.2504 92.375 67.6694 91.2935C70.7519 87.7048 83.2776 86.3284 86.2133 86.1809C67.9629 111.99 51.0826 128.95 36.1104 128.95C34.5447 128.95 33.0279 129.097 31.3154 128.655C25.2972 127.278 21.7254 120.888 21.7254 115.136C21.7254 107.516 29.0158 99.2573 33.1747 97.7334C34.5447 97.0943 35.1808 96.3569 35.1808 95.7178C35.1808 94.7838 34.5447 94.1447 32.8811 94.1447C18.4961 97.7334 10.7654 109.532 10.9122 119.167C11.2058 135.046 23.1444 143.894 36.5997 143.894C55.4861 143.894 65.0761 135.635 95.8522 85.591C108.084 84.362 114.103 83.5754 120.316 82.4939C120.316 82.4939 122.176 87.0166 126.824 87.0166C127.607 87.1641 127.46 86.3775 127.9 84.7061C125.894 84.5586 123.546 83.133 123.546 81.4615C125.405 80.5275 126.971 79.446 128.341 78.3645C130.298 76.4473 132.304 72.5636 132.304 69.909ZM122.714 77.9712C122.274 76.1031 121.931 74.3825 122.714 71.9246C123.35 69.6141 124.72 68.4834 127.069 68.041C128.145 67.8935 128.634 68.975 128.781 69.909C129.075 71.7771 127.558 74.5792 126.628 75.5132C124.28 78.1678 122.714 77.9712 122.714 77.9712Z" fill="white"></path>
</svg>
