<?xml version="1.0" encoding="UTF-8"?>
<svg xmlns="http://www.w3.org/2000/svg" width="268" height="200" viewBox="0 0 268 200" fill="none">
  <g clip-path="url(#clip0_2099_2791)">
    <path d="M181.201 80.7233C185.808 63.3861 185.808 63.3861 185.808 63.3861C184.031 64.3756 180.299 64.1807 178.73 64.1803C121.675 64.4395 121.675 64.4395 121.675 64.4395C125.804 66.5611 126.857 69.4689 125.499 75.0094C113.108 122.116 113.108 122.116 113.108 122.116C110.63 131.199 108.464 135.193 104.678 135.198C101.532 135.226 99.979 133.474 97.1078 129.111C77.4177 93.6929 77.4177 93.6929 77.4177 93.6929C118.277 64.4902 118.277 64.4902 118.277 64.4902C81.9901 64.6413 81.9901 64.6413 81.9901 64.6413C87.0528 67.5126 87.7174 71.7305 82.3738 75.5277C54.6528 97.2868 54.6528 97.2868 54.6528 97.2868C60.7503 74.5996 60.7503 74.5996 60.7503 74.5996C62.4334 68.9946 66.4548 66.0966 70.0489 64.652C30.9465 64.8601 30.9465 64.8601 30.9465 64.8601C35.0987 66.8957 36.1931 69.8766 34.8769 75.4901C22.4054 122.667 22.4054 122.667 22.4054 122.667C21.0843 127.51 19.6953 133.165 11.984 136.28C50.6909 136.055 50.6909 136.055 50.6909 136.055C45.9873 133.221 46.0537 129.481 47.2577 124.73C52.7871 104.351 52.7871 104.351 52.7871 104.351C68.3828 136.056 68.3828 136.056 68.3828 136.056C86.2804 135.866 86.2804 135.866 86.2804 135.866C141.329 135.517 141.329 135.517 141.329 135.517C137.081 131.915 136.968 127.818 138.643 121.903C143.216 104.803 143.216 104.803 143.216 104.803C155.735 104.705 155.735 104.705 155.735 104.705C161.653 104.669 163.786 105.872 166.377 108.556C170.765 91.6825 170.765 91.6825 170.765 91.6825C168.995 92.6433 165.134 92.4742 163.731 92.4272C146.489 92.5813 146.489 92.5813 146.489 92.5813C150.768 76.4475 150.768 76.4475 150.768 76.4475C170.815 76.3874 170.815 76.3874 170.815 76.3874C176.579 76.4638 178.902 77.873 181.193 80.752L181.201 80.7233Z" fill="white"></path>
    <path d="M226.637 125.158C210.706 125.119 201.685 113.857 201.627 101.548C201.549 87.8479 212.568 73.9657 231.044 73.8113C236.845 73.8669 243.083 74.6897 251.085 78.185C254.963 63.971 254.963 63.971 254.963 63.971C249.743 62.6888 242.927 61.9535 234.84 62.0395C197.826 62.2387 174.113 83.843 174.28 105.116C174.373 121.131 187.323 137.171 217.224 136.987C226.031 136.852 234.701 136.434 241.926 134.879C245.577 121.496 245.577 121.496 245.577 121.496C239.807 123.359 232.477 125.07 226.637 125.158Z" fill="white"></path>
    <path d="M24.4835 125.591C37.5982 76.3312 37.5982 76.3312 37.5982 76.3312C39.2766 70.4117 38.6856 68.3998 36.9946 66.2397C40.2371 67.0076 42.2695 69.3848 40.3587 76.3809C27.2544 125.829 27.2544 125.829 27.2544 125.829C25.649 131.707 23.4403 133.812 19.0219 133.738C21.8377 132.231 23.6401 129.243 24.5121 125.599L24.4835 125.591Z" fill="black"></path>
    <path d="M115.094 125.347C128.225 76.0292 128.225 76.0292 128.225 76.0292C129.872 70.2244 129.223 68.1968 127.559 65.8281C130.827 66.7264 132.807 69.1817 130.912 76.1205C117.8 125.597 117.8 125.597 117.8 125.597C116.236 131.548 114.513 133.571 110.138 133.448C112.855 132.191 113.865 129.848 115.094 125.347Z" fill="black"></path>
    <path d="M152.519 70.8234C170.926 70.7758 170.926 70.7758 170.926 70.7758C176.316 70.7498 180.803 71.8914 180.702 76.204C178.726 74.4292 176.52 73.2686 170.264 73.4257C151.706 73.4626 151.706 73.4626 151.706 73.4626L152.519 70.8234Z" fill="black"></path>
    <path d="M144.068 101.739C144.802 99.0479 144.802 99.0479 144.802 99.0479C155.775 99.0796 155.775 99.0796 155.775 99.0796C161.123 98.9806 165.615 100.216 165.567 104.451C163.611 102.712 161.377 101.544 155.121 101.701C144.068 101.739 144.068 101.739 144.068 101.739Z" fill="black"></path>
    <path d="M177.589 105.054C177.501 81.4593 203.762 68.3485 220.317 66.5559C205.986 70.3471 180.648 81.7704 180.629 104.966C180.722 127.299 204.656 133.544 221.304 134.458C202.875 136.012 177.645 128.763 177.589 105.054Z" fill="black"></path>
    <path d="M77.5125 133.098C73.7995 132.94 71.3745 128.513 71.3745 128.513C71.5149 129.014 71.5149 129.014 71.5149 129.014C57.8449 101.371 57.8449 101.371 57.8449 101.371C86.758 78.9077 86.758 78.9077 86.758 78.9077C92.5635 74.557 94.7192 68.1237 88.6714 66.0287C90.8 69.511 89.5747 73.5499 84.6105 77.3C54.5332 100.645 54.5332 100.645 54.5332 100.645C70.5317 133.181 70.5317 133.181 70.5317 133.181C73.6667 133.088 73.6667 133.088 73.6667 133.088L77.5125 133.098Z" fill="black"></path>
  </g>
  <defs>
    <clipPath id="clip0_2099_2791">
      <rect width="243" height="75" fill="white" transform="translate(12 62)"></rect>
    </clipPath>
  </defs>
</svg>
