<?xml version="1.0" encoding="UTF-8"?>
<svg xmlns="http://www.w3.org/2000/svg" width="174" height="66" viewBox="0 0 174 66" fill="none">
  <path d="M0 47.7891H2.34891V62.9091H10.3014V65.113H0V47.7891Z" fill="white"></path>
  <path d="M24.3242 47.7891H26.6731V65.113H24.3242V47.7891Z" fill="white"></path>
  <path d="M42.7461 47.7891H45.8256L55.3722 62.0275H55.4206V47.7891H57.7695V65.113H54.7805L45.1433 50.8747H45.095V65.113H42.7461V47.7891Z" fill="white"></path>
  <path d="M85.9011 51.5322C84.9229 50.2581 83.3107 49.5516 81.7166 49.5516C77.8279 49.5516 75.2555 52.6614 75.2555 56.5984C75.2555 60.2455 77.6769 63.3492 81.7166 63.3492C83.6971 63.3492 85.2128 62.4676 86.2453 61.0245L88.2259 62.516C87.7126 63.2224 85.6354 65.5532 81.6683 65.5532C76.1613 65.5532 72.7617 60.952 72.7617 56.5984C72.7617 51.2182 76.4572 47.3477 81.789 47.3477C84.0655 47.3477 86.4627 48.2051 87.8576 50.0408L85.9011 51.5322Z" fill="white"></path>
  <path d="M110.641 65.555C115.924 65.555 119.668 61.5939 119.668 56.4552C119.668 51.3166 115.924 47.3555 110.641 47.3555C105.357 47.3555 101.613 51.3166 101.613 56.4552C101.613 61.5939 105.357 65.555 110.641 65.555ZM110.641 63.351C106.673 63.351 104.107 60.2413 104.107 56.4492C104.107 52.6571 106.679 49.5474 110.641 49.5474C114.602 49.5474 117.174 52.6571 117.174 56.4492C117.174 60.2413 114.608 63.351 110.641 63.351Z" fill="white"></path>
  <path d="M134.668 47.7891H137.017V62.9091H144.969V65.113H134.668V47.7891Z" fill="white"></path>
  <path d="M158.98 47.7891H162.066L171.607 62.0275H171.655V47.7891H174.004V65.113H171.021L161.378 50.8747H161.329V65.113H158.98V47.7891Z" fill="white"></path>
  <path d="M90.0858 35.0968H87.6402C87.8395 31.8783 88.0509 27.1805 88.075 21.3958C88.9566 21.3535 89.971 21.2629 90.9613 21.1603C90.9432 24.2881 90.7681 30.3023 90.0858 35.0968ZM83.9206 35.0968C83.2383 30.3023 83.0632 24.2881 83.0451 21.1603C84.0354 21.2629 85.0498 21.3475 85.9314 21.3958C85.9555 27.1805 86.1669 31.8783 86.3662 35.0968H83.9206ZM83.9206 5.62364H86.3662C86.1669 8.84207 85.9555 13.5399 85.9314 19.3246C85.0498 19.3669 84.0354 19.4575 83.0451 19.5601C83.0632 16.4323 83.2383 10.4181 83.9206 5.62364ZM90.0858 5.62364C90.7681 10.4181 90.9432 16.4323 90.9613 19.5601C89.971 19.4575 88.9566 19.3729 88.075 19.3246C88.0509 13.5399 87.8395 8.84207 87.6402 5.62364H90.0858ZM92.332 19.7111C92.3079 14.7898 92.0301 9.22852 91.2512 4.11405C91.2512 4.11405 89.6269 3.92083 87.5255 3.89063C87.3806 1.88591 87.2659 0.792969 87.2659 0.792969H86.7405C86.7405 0.792969 86.6258 1.88591 86.4809 3.89063C84.3735 3.92083 82.7552 4.11405 82.7552 4.11405C81.9763 9.22852 81.6985 14.7838 81.6744 19.7111C79.9414 19.9103 78.5586 20.1096 78.5586 20.1096V20.6168C78.5586 20.6168 79.9414 20.8161 81.6744 21.0154C81.6985 25.9366 81.9763 31.4979 82.7552 36.6063C82.7552 36.6063 84.3735 36.7996 86.4809 36.8298C86.6258 38.8345 86.7405 39.9274 86.7405 39.9274H87.2659C87.2659 39.9274 87.3806 38.8345 87.5255 36.8298C89.6329 36.7996 91.2512 36.6063 91.2512 36.6063C92.0301 31.4919 92.3079 25.9366 92.332 21.0154C94.065 20.8161 95.4478 20.6168 95.4478 20.6168V20.1096C95.4478 20.1096 94.065 19.9103 92.332 19.7111Z" fill="white"></path>
</svg>
