<?xml version="1.0" encoding="UTF-8"?>
<svg xmlns="http://www.w3.org/2000/svg" width="318" height="200" viewBox="0 0 318 200" fill="none">
  <g clip-path="url(#clip0_2099_2774)">
    <path d="M9.15234 121.305V58.4766H20.2595V121.305H9.15234Z" fill="white"></path>
    <path d="M48.6817 75.7266C34.4408 75.7266 24.5859 86.6063 24.5859 99.0593C24.5859 112.958 35.3069 122.532 48.7924 122.532C61.5908 122.532 72.697 113.134 72.697 99.0292C72.697 87.1688 63.494 75.7266 48.6817 75.7266ZM48.5509 86.3732C56.0036 86.3732 61.4892 92.1376 61.4892 99.0993C61.4892 106.481 55.4411 111.865 48.7521 111.865C40.8483 111.865 35.8742 105.641 35.8742 99.1192C35.8742 91.971 41.4901 86.3732 48.5509 86.3732Z" fill="white"></path>
    <path d="M100.619 75.7266C86.3783 75.7266 76.5234 86.6063 76.5234 99.0593C76.5234 112.958 87.2444 122.532 100.73 122.532C113.528 122.532 124.634 113.134 124.634 99.0292C124.634 90.7235 121.015 87.0382 121.015 87.0382L124.093 85.9892V77.032H108.318C108.318 77.032 104.898 75.7266 100.619 75.7266ZM100.488 86.3732C107.941 86.3732 113.427 92.1376 113.427 99.0993C113.427 106.481 107.379 111.865 100.69 111.865C92.7858 111.865 87.8117 105.641 87.8117 99.1192C87.8117 91.971 93.4276 86.3732 100.488 86.3732Z" fill="white"></path>
    <path d="M113.329 124.375C113.329 131.756 107.281 137.181 100.592 137.181C92.6881 137.181 87.6939 130.896 87.6939 124.375H76.4258C76.4258 138.273 87.1468 147.848 100.632 147.848C113.431 147.848 124.537 138.479 124.537 124.375H113.329Z" fill="white"></path>
    <path d="M129.09 121.305V77.0312H140.197V121.305H129.09Z" fill="white"></path>
    <path d="M150.964 121.3V86.9423H145.008V77.0254H150.964V63.4297H162.071V77.0254H168.188V86.9423H162.071V121.3H150.964Z" fill="white"></path>
    <path d="M141.96 64.4568C141.96 68.4931 138.667 71.7652 134.605 71.7652C130.543 71.7652 127.25 68.4931 127.25 64.4568C127.25 60.4205 130.543 57.1484 134.605 57.1484C138.667 57.1484 141.96 60.4205 141.96 64.4568Z" fill="white"></path>
    <path d="M193.161 75.6953C178.853 75.6953 169.629 86.5808 169.629 99.4579C169.629 112.765 178.884 122.561 193.393 122.561C206.927 122.561 213.585 114.163 213.585 114.163L206.16 106.776C206.16 106.776 200.554 112.784 193.534 112.784C187.681 112.784 183.002 109.538 181.37 103.587H215.979V100.548C215.979 88.4213 208.916 75.6953 193.161 75.6953ZM192.809 85.4123C197.926 85.4123 203.159 88.1322 204.329 94.6294H181.068C181.989 90.0623 186.01 85.4123 192.809 85.4123Z" fill="white"></path>
    <path d="M243.759 122.567C229.41 122.567 219.633 111.708 219.633 98.9043C219.633 85.6911 230.683 75.6875 243.713 75.6875C256.309 75.6875 262.756 84.5231 262.756 84.5231L255.008 92.1872C255.008 92.1872 250.52 86.425 243.66 86.425C236.057 86.425 230.858 92.2042 230.858 99.0738C230.858 106.327 236.388 111.892 243.574 111.892C250.545 111.892 254.997 106.139 254.997 106.139L262.823 113.799C262.823 113.799 256.438 122.567 243.759 122.567Z" fill="white"></path>
    <path d="M266.867 121.341V58.3203H277.974V81.4742C277.974 81.4742 282.227 75.6906 291.479 75.6906C303.109 75.6906 309.847 84.2814 309.847 95.2687V121.341H298.74V96.9368C298.74 89.5553 294.115 86.4929 288.991 86.4929C283.154 86.4929 277.974 89.7939 277.974 97.508V121.341H266.867Z" fill="white"></path>
  </g>
  <defs>
    <clipPath id="clip0_2099_2774">
      <rect width="301" height="91" fill="white" transform="translate(9 57)"></rect>
    </clipPath>
  </defs>
</svg>
