<?xml version="1.0" encoding="UTF-8"?>
<svg xmlns="http://www.w3.org/2000/svg" width="36" height="36" viewBox="0 0 36 36" fill="none">
  <g clip-path="url(#clip0_1898_1659)">
    <path d="M26.6187 22.3996C25.688 24.2465 26.4307 26.4983 28.2777 27.4289C30.1246 28.3596 32.3763 27.6169 33.307 25.77C34.2377 23.923 33.495 21.6713 31.648 20.7406C29.8011 19.8099 27.5494 20.5527 26.6187 22.3996Z" stroke="white" stroke-width="0.964656" stroke-miterlimit="10"></path>
    <path d="M8.36868 28.4269C7.43798 30.2739 8.18073 32.5256 10.0277 33.4563C11.8746 34.387 14.1263 33.6442 15.057 31.7973C15.9877 29.9504 15.245 27.6986 13.398 26.7679C11.5511 25.8373 9.29937 26.58 8.36868 28.4269Z" stroke="white" stroke-width="0.964656" stroke-miterlimit="10"></path>
    <path d="M1.57961 20.5441C0.648915 22.3911 1.39167 24.6428 3.2386 25.5735C5.08554 26.5042 7.33725 25.7614 8.26795 23.9145C9.19864 22.0675 8.45589 19.8158 6.60896 18.8851C4.76202 17.9544 2.51031 18.6972 1.57961 20.5441Z" stroke="white" stroke-width="0.964656" stroke-miterlimit="10"></path>
    <path d="M2.35303 10.173C1.42233 12.02 2.16509 14.2717 4.01202 15.2024C5.85896 16.1331 8.11069 15.3903 9.04138 13.5434C9.97208 11.6965 9.22931 9.44473 7.38238 8.51403C5.53544 7.58334 3.28373 8.3261 2.35303 10.173Z" stroke="white" stroke-width="0.964656" stroke-miterlimit="10"></path>
    <path d="M10.2202 3.38007C9.28954 5.22701 10.0323 7.47872 11.8792 8.40942C13.7262 9.34012 15.9779 8.59736 16.9086 6.75042C17.8393 4.90349 17.0965 2.65177 15.2496 1.72107C13.4026 0.790377 11.1509 1.53314 10.2202 3.38007Z" stroke="white" stroke-width="0.964656" stroke-miterlimit="10"></path>
    <path d="M20.6031 4.15351C19.6724 6.00044 20.4151 8.25215 22.262 9.18285C24.109 10.1135 26.3607 9.37079 27.2914 7.52386C28.2221 5.67692 27.4793 3.42521 25.6324 2.49451C23.7855 1.56381 21.5337 2.30657 20.6031 4.15351Z" stroke="white" stroke-width="0.964656" stroke-miterlimit="10"></path>
    <path d="M27.3921 12.0324C26.4614 13.8793 27.2042 16.1311 29.0511 17.0618C30.898 17.9925 33.1497 17.2497 34.0804 15.4028C35.0111 13.5558 34.2684 11.3041 32.4215 10.3734C30.5745 9.44272 28.3228 10.1855 27.3921 12.0324Z" stroke="white" stroke-width="0.964656" stroke-miterlimit="10"></path>
    <path d="M19.9478 35.1306L26.3359 33.0234L24.2287 26.6353L17.8406 28.7425L19.9478 35.1306Z" stroke="white" stroke-width="0.964656" stroke-miterlimit="10"></path>
  </g>
  <defs>
    <clipPath id="clip0_1898_1659">
      <rect width="36" height="36" fill="white"></rect>
    </clipPath>
  </defs>
</svg>
