<?xml version="1.0" encoding="UTF-8"?>
<svg xmlns="http://www.w3.org/2000/svg" width="400" height="200" viewBox="0 0 400 200" fill="none">
  <g clip-path="url(#clip0_2099_2771)">
    <path d="M159.977 77.0336H121.491V85.5701H135.7V121.96H145.782V85.5701H159.992V77.0336M197.616 106.707C196.84 108.668 195.577 110.398 193.948 111.733C192.318 113.068 190.376 113.963 188.304 114.333C187.536 114.471 186.757 114.542 185.977 114.546C185.175 114.546 184.389 114.47 183.634 114.333C181.564 113.963 179.623 113.068 177.996 111.733C176.369 110.398 175.109 108.668 174.337 106.707C173.437 104.408 172.975 101.959 172.977 99.4892C172.977 97.0243 173.439 94.5814 174.337 92.2871C175.108 90.3238 176.367 88.591 177.995 87.2535C179.622 85.9159 181.563 85.0181 183.634 84.6452C185.182 84.3578 186.771 84.3578 188.32 84.6452C190.389 85.0166 192.329 85.9122 193.956 87.247C195.583 88.5818 196.843 90.3115 197.616 92.2719C199.421 96.9132 199.421 102.065 197.616 106.707ZM185.977 75.6842C179.68 75.6842 173.642 78.193 169.19 82.6587C164.738 87.1245 162.236 93.1813 162.236 99.4968C162.236 105.812 164.738 111.869 169.19 116.335C173.642 120.801 179.68 123.309 185.977 123.309C192.273 123.309 198.311 120.801 202.763 116.335C207.215 111.869 209.717 105.812 209.717 99.4968C209.717 93.1813 207.215 87.1245 202.763 82.6587C198.311 78.193 192.273 75.6842 185.977 75.6842ZM209.86 77.0488H221.742L232.822 96.3506L243.902 77.0336H255.768L237.855 105.342V121.96H227.788V105.342L209.86 77.0336M279.697 114.546C280.483 114.546 281.269 114.47 282.025 114.333C284.095 113.963 286.035 113.068 287.663 111.733C289.29 110.398 290.55 108.668 291.322 106.707C293.137 102.073 293.137 96.9211 291.322 92.2871C290.55 90.3259 289.29 88.5954 287.663 87.2605C286.035 85.9255 284.095 85.0304 282.025 84.6604C280.476 84.3816 278.889 84.3816 277.339 84.6604C275.272 85.0328 273.335 85.929 271.71 87.2638C270.086 88.5986 268.829 90.3278 268.058 92.2871C267.159 94.5813 266.697 97.0243 266.697 99.4892C266.697 102.037 267.181 104.478 268.058 106.707C268.829 108.669 270.088 110.4 271.715 111.735C273.343 113.07 275.284 113.965 277.354 114.333C278.128 114.473 278.912 114.544 279.697 114.546ZM255.965 99.4892C255.965 93.1757 258.465 87.1208 262.916 82.6565C267.367 78.1922 273.403 75.6842 279.697 75.6842C285.992 75.6842 292.028 78.1922 296.479 82.6565C300.929 87.1208 303.43 93.1757 303.43 99.4892C303.43 105.803 300.929 111.858 296.479 116.322C292.028 120.786 285.992 123.294 279.697 123.294C273.403 123.294 267.367 120.786 262.916 116.322C258.465 111.858 255.965 105.803 255.965 99.4892ZM372.163 104.19L365.573 86.4344L358.967 104.174H372.163M375.081 112.044H356.034L352.361 121.93H341.145L359.284 77.0033H371.831L389.97 121.93H378.784L375.081 112.044ZM344.108 77.0336H305.622V85.5701H319.831V121.96H329.913V85.5701H344.092V77.0336M80.3744 71.09C73.3587 68.9565 66.0586 67.9134 58.728 67.9968C51.3974 67.9134 44.0973 68.9565 37.0815 71.09C21.0583 76.2604 10.0234 86.9954 10.0234 99.3679C10.0234 116.79 31.7908 130.997 58.728 130.997C85.6047 130.997 107.433 116.85 107.433 99.3679C107.433 86.9954 96.4279 76.2604 80.3744 71.09ZM58.728 117.426C54.7071 117.426 51.4268 109.542 51.2454 99.5499C53.6338 99.8077 56.1431 99.8683 58.728 99.8683C61.2977 99.8683 63.8222 99.747 66.2256 99.5651C66.0291 109.527 62.7489 117.426 58.728 117.426ZM51.7443 91.8019C52.8024 84.7817 55.5233 79.869 58.728 79.869C61.8722 79.869 64.578 84.7817 65.7117 91.7867C61.0654 92.2034 56.3915 92.2084 51.7443 91.8019ZM69.9896 91.2257C68.357 80.3087 63.9431 72.4243 58.728 72.4243C53.5129 72.4243 49.0989 80.2481 47.4664 91.2257C37.5804 89.6488 30.6571 86.1766 30.6571 82.0676C30.6571 76.5181 43.2489 72.03 58.728 72.03C74.207 72.03 86.814 76.5181 86.814 82.0676C86.814 86.1614 79.8907 89.7095 70.0047 91.2257H69.9896ZM17.1281 98.2308C17.1281 92.8632 19.2141 87.8748 22.7967 83.5232C22.7362 83.8264 22.7362 84.16 22.7362 84.4026C22.7362 91.1651 32.8036 96.8358 46.8315 98.9889V100.505C46.8315 112.999 50.3082 123.613 55.085 127.267C33.8164 126.008 17.1432 113.499 17.1432 98.2308H17.1281ZM62.3861 127.343C67.1628 123.673 70.6245 113.06 70.6245 100.566V99.0495C84.6523 96.9723 94.7198 91.2257 94.7198 84.4784C94.7198 84.16 94.7198 83.8416 94.6593 83.5838C98.23 87.6557 100.239 92.8692 100.328 98.2914C100.328 113.499 83.6547 126.008 62.3861 127.328V127.343Z" fill="white"></path>
  </g>
  <defs>
    <clipPath id="clip0_2099_2771">
      <rect width="380" height="63" fill="white" transform="translate(10 68)"></rect>
    </clipPath>
  </defs>
</svg>
