<?xml version="1.0" encoding="UTF-8" standalone="no"?>
<svg
   id="svg8"
   xml:space="preserve"
   viewBox="0 0 500 232.341"
   y="0px"
   x="0px"
   version="1.1"
   sodipodi:docname="logo.svg"
   width="500"
   height="232.341"
   inkscape:version="1.4 (e7c3feb1, 2024-10-09)"
   xmlns:inkscape="http://www.inkscape.org/namespaces/inkscape"
   xmlns:sodipodi="http://sodipodi.sourceforge.net/DTD/sodipodi-0.dtd"
   xmlns="http://www.w3.org/2000/svg"
   xmlns:svg="http://www.w3.org/2000/svg"
   xmlns:rdf="http://www.w3.org/1999/02/22-rdf-syntax-ns#"
   xmlns:cc="http://creativecommons.org/ns#"
   xmlns:dc="http://purl.org/dc/elements/1.1/"><sodipodi:namedview
     id="namedview1"
     pagecolor="#505050"
     bordercolor="#eeeeee"
     borderopacity="1"
     inkscape:showpageshadow="0"
     inkscape:pageopacity="0"
     inkscape:pagecheckerboard="0"
     inkscape:deskcolor="#505050"
     inkscape:zoom="0.26149445"
     inkscape:cx="1248.5925"
     inkscape:cy="323.14261"
     inkscape:window-width="1728"
     inkscape:window-height="1080"
     inkscape:window-x="0"
     inkscape:window-y="37"
     inkscape:window-maximized="0"
     inkscape:current-layer="svg8" /><metadata
     id="metadata14"><rdf:RDF><cc:Work
         rdf:about=""><dc:format>image/svg+xml</dc:format><dc:type
           rdf:resource="http://purl.org/dc/dcmitype/StillImage" /></cc:Work></rdf:RDF></metadata><defs
     id="defs12" /><g
     style="fill:#a48111;stroke-width:0;stroke-miterlimit:2"
     transform="matrix(3.0353491,0,0,3.0353491,-1304.1074,-1049.4111)"
     stroke-miterlimit="2"
     id="logo-group"><path
       class="c1"
       d="m 429.64,397.14 h 16.85 c 1.0801,0 1.8721,-0.86414 1.8721,-1.8722 0,-1.0801 -0.86377,-1.9442 -1.8721,-1.9442 h -3.0239 c -7.273,0 -13.177,-5.9045 -13.177,-13.177 0,-7.2726 5.9043,-13.177 13.177,-13.177 h 15.049 v 11.305 h -15.049 c -1.0083,0 -1.8726,0.86407 -1.8726,1.8721 0,1.0801 0.86426,1.8722 1.8726,1.8722 h 3.0239 c 7.273,0 13.177,5.9765 13.177,13.249 0,7.2726 -5.9043,13.177 -13.177,13.177 h -16.849 z"
       style="font-variant-ligatures:normal"
       id="path12" /><path
       class="c1"
       d="m 470.41,403.19 c -3.3843,-3.3843 -5.2564,-7.9206 -5.2564,-12.745 v -22.53 h 10.801 v 22.538 c 0,4.0324 3.1685,7.2006 7.2007,7.2006 3.9604,0 7.2007,-3.1683 7.2007,-7.2006 v -22.54 h 10.801 v 22.538 c 0,4.8244 -1.8721,9.3608 -5.3281,12.745 -3.3843,3.3843 -7.9209,5.2565 -12.673,5.2565 -4.8242,0 -9.3608,-1.8721 -12.745,-5.2565 z"
       style="font-variant-ligatures:normal"
       id="path15" /><path
       class="c1"
       d="m 520.82,366.47 v 41.548 h -10.873 v -37.947 z"
       style="font-variant-ligatures:normal"
       id="path18" /><path
       class="c1"
       d="m 553.06,378.06 h -11.449 v 29.955 H 530.81 V 367.98 c 0,-3.0243 0.57593,-5.9045 1.728,-8.6408 1.1521,-2.6642 2.7363,-5.0405 4.8245,-7.1286 2.0161,-2.0162 4.3923,-3.6003 7.0566,-4.7524 2.7362,-1.1521 5.6165,-1.7282 8.6408,-1.7282 v 10.801 c -6.3366,0 -11.449,5.1125 -11.449,11.449 h 11.449 z"
       style="font-variant-ligatures:normal"
       id="path21" /><path
       class="c1"
       d="m 552.17,367.91 h 11.881 l 9.7207,22.754 9.001,-22.754 h 11.593 l -21.89,54.365 h -11.521 l 7.2725,-18.074 z"
       style="font-variant-ligatures:normal"
       id="path24" /></g></svg>
