<?xml version="1.0" encoding="UTF-8"?>
<svg xmlns="http://www.w3.org/2000/svg" width="181" height="66" viewBox="0 0 181 66" fill="none">
  <path d="M122.843 47.4771C122.833 47.487 122.822 47.487 122.822 47.4979C115.112 52.9541 105.984 58.6863 96.1614 64.7036L95.774 64.9281C95.7137 64.974 95.6735 65.0415 95.6619 65.1164C95.6502 65.1913 95.668 65.2678 95.7116 65.3299C95.7552 65.3919 95.8211 65.4347 95.8955 65.4492C95.9699 65.4637 96.047 65.4488 96.1107 65.4077L96.4365 65.2339C104.77 60.89 114.337 55.7279 123.966 50.4346C124.016 50.4047 124.067 50.3739 124.118 50.3531C123.571 49.4535 123.143 48.4868 122.843 47.4771ZM173.432 6.527C161.284 -6.87505 83.1059 5.18037 49.8664 12.4429L49.0918 12.6058C49.054 12.6122 49.018 12.6259 48.9856 12.6464C48.9533 12.6668 48.9254 12.6935 48.9035 12.7248C48.8816 12.7561 48.8661 12.7915 48.858 12.8289C48.85 12.8663 48.8494 12.9049 48.8565 12.9425C48.8872 13.1054 49.0402 13.2077 49.1931 13.1769L49.9578 13.024C77.4968 8.11889 134.776 1.3251 147.096 13.5443C150.86 17.2774 149.962 22.0703 145.597 27.7419C147.942 29.2514 149.615 31.627 150.371 34.5954C167.402 23.2947 178.836 12.4936 173.431 6.527H173.432Z" fill="white"></path>
  <path d="M127.757 43.9573C127.911 48.6696 130.898 52.5349 134.784 52.5349C142.322 52.5349 145.534 43.2741 145.309 37.093C145.146 32.3707 142.087 28.5154 138.201 28.5154C131.724 28.5055 127.532 37.7255 127.757 43.9573ZM123.779 43.7021C123.503 35.6549 129.807 27.424 138.965 27.424C145.086 27.424 149.094 31.5037 149.318 37.7563C149.614 46.2415 143.719 54.0344 134.141 54.0344C128.002 54.0344 123.993 49.9647 123.779 43.7021ZM37.0374 41.5808C36.7116 41.703 36.2926 41.8252 35.7623 41.9374C35.2419 42.0605 34.2835 42.2234 32.8962 42.4478C31.9369 42.6007 31.2744 42.7944 30.897 43.0695C30.5405 43.3347 30.3269 43.6514 30.2644 44.0487C30.1939 44.4668 30.326 44.7935 30.6835 45.0587C31.05 45.3139 31.6618 45.446 32.5296 45.446C33.1812 45.446 33.8147 45.3447 34.4265 45.1402C35.0482 44.9365 35.5786 44.6605 35.9768 44.3139C36.2727 44.0596 36.4863 43.7329 36.6492 43.3347C36.7514 43.0695 36.8845 42.4885 37.0374 41.5808ZM44.9923 36.6341C44.9624 37.3681 44.8294 38.0215 44.6357 39.1536L43.2891 46.7103C43.1769 47.3845 43.4221 47.9049 44.0439 48.2714L44.0032 48.5674L36.2926 48.5574L36.2211 46.6388C35.0612 47.3246 33.8169 47.8564 32.5197 48.2208C31.2952 48.5375 30.3061 48.6696 28.8273 48.6696C26.3386 48.6696 24.9105 48.4144 23.9213 47.5474C22.9213 46.6605 22.4317 46.0687 22.4824 44.8442C22.524 44.141 22.8906 43.2333 23.4109 42.6007C23.9413 41.9582 24.6761 41.5401 25.4607 41.1618C26.2571 40.7853 27.1947 40.5102 28.5513 40.2957C29.9178 40.0713 31.8156 39.8568 34.355 39.6432C35.6908 39.531 36.5071 39.2251 36.8845 39.0722C37.4148 38.8676 37.6284 38.6332 37.6999 38.2052C37.8429 37.4296 37.5985 36.9807 36.5578 36.7771C33.784 36.226 28.5721 37.1337 25.8897 37.797L27.3476 33.8603C30.8862 33.3399 34.2021 33.0132 37.7008 33.0132C43.2792 33.0132 45.0539 34.5943 44.9923 36.6341ZM67.3502 48.5574L70.0217 33.4522H77.4065L74.734 48.5565L67.3502 48.5574ZM70.4299 29.9535C70.6543 28.7091 72.6127 27.7091 74.7947 27.7091C76.9875 27.7091 78.5893 28.719 78.3748 29.9535C78.1395 31.1978 76.192 32.2069 73.9892 32.2069C71.8064 32.2069 70.2154 31.1978 70.4299 29.9535ZM103.625 41.6116C103.288 41.7238 102.86 41.846 102.34 41.9681C101.82 42.0903 100.861 42.2442 99.4738 42.4677C98.5254 42.6216 97.8521 42.8152 97.4856 43.0903C97.1281 43.3456 96.9245 43.6713 96.843 44.0587C96.7616 44.4777 96.9145 44.8144 97.2611 45.0687C97.6385 45.3239 98.2503 45.446 99.1164 45.446C99.7589 45.446 100.392 45.3546 101.014 45.161C101.647 44.9465 102.167 44.6813 102.574 44.3347C102.86 44.0795 103.075 43.7428 103.228 43.3555C103.329 43.1003 103.461 42.5193 103.625 41.6116ZM111.58 36.6549C111.55 37.3988 111.417 38.0522 111.213 39.1735L109.878 46.742C109.765 47.4044 110.01 47.9348 110.632 48.3022L110.592 48.5674L102.881 48.5773L102.82 46.6497C101.663 47.3418 100.417 47.8737 99.1173 48.2307C97.8928 48.5565 96.9037 48.6895 95.405 48.6895C92.9163 48.6895 91.4981 48.4452 90.509 47.5673C89.499 46.6705 89.0203 46.0886 89.07 44.865C89.1017 44.151 89.4682 43.2433 89.9986 42.6206C90.5298 41.9691 91.2637 41.56 92.0592 41.1826C92.8547 40.8052 93.7932 40.531 95.1398 40.3057C96.5064 40.0921 98.4132 39.8677 100.953 39.6532C102.279 39.541 103.095 39.2459 103.472 39.0921C104.012 38.8885 104.217 38.6532 104.298 38.2142C104.431 37.4504 104.196 37.0015 103.166 36.7871C100.372 36.2359 95.1806 37.1445 92.4981 37.807L93.9461 33.8703C97.4955 33.3499 100.8 33.0232 104.298 33.0232C109.857 33.0341 111.631 34.625 111.58 36.6549ZM21.4833 43.1311C19.076 43.6107 17.7303 43.7944 15.3538 43.7944C11.8243 43.7944 9.01972 42.0396 9.17266 38.8269C9.28488 36.6848 11.8143 32.177 18.2497 32.177C20.2796 32.177 21.8607 32.5336 23.9919 33.7481L24.9304 28.5055C22.0344 27.414 20.1158 27.2511 17.6271 27.2711C9.18352 27.3634 1.08473 31.1987 0.0747592 38.9998C-0.945169 46.9248 8.73464 48.914 13.0279 48.8941C15.5067 48.8832 18.0868 48.7818 20.4941 48.5366L21.4833 43.1311ZM81.4753 33.3707L82.0057 30.2901L89.7271 28.6068L88.9008 33.3599H92.6837L91.9705 36.3997L88.299 36.3898L86.0655 48.5366C86.0655 48.5366 78.63 48.4859 78.5993 48.5366L80.8228 36.4196H78.0282L78.5993 33.3608H81.4753V33.3707ZM122.671 27.6892L119.081 48.5465L111.564 48.5565L115.347 27.4846L122.671 27.6892ZM57.579 36.9907C56.6319 36.9846 55.7096 37.2934 54.9572 37.8685C54.1825 38.4595 53.6929 39.3165 53.4993 40.4487C53.264 41.7645 53.4069 42.713 53.9273 43.294C54.4576 43.8759 55.2124 44.1718 56.2115 44.1718C56.8848 44.1718 57.5781 44.0487 58.0885 43.7944C58.7211 43.4578 59.1591 43.1103 59.5365 42.5501C59.9446 41.9682 60.2098 41.3156 60.3528 40.5609C60.5673 39.3672 60.3835 38.4794 59.8324 37.8884C59.2921 37.2975 58.5473 36.9907 57.579 36.9907ZM44.1362 53.7693L47.7363 33.5336H54.2232L53.7228 36.1137C54.2839 35.3391 55.1816 34.7065 56.426 34.1961C57.6803 33.6866 59.0876 33.3092 60.6179 33.3092C62.3103 33.3092 63.351 33.4006 64.6162 34.054C65.8705 34.7164 66.7583 35.6757 67.2271 36.9201C67.7158 38.1436 67.819 39.531 67.5529 41.0297C67.1149 43.5293 65.9013 45.4868 63.9022 46.9357C61.9238 48.3837 60.1383 48.761 57.5989 48.771C56.7011 48.771 55.9464 48.6796 55.3246 48.5266C54.7128 48.3637 54.2232 48.1692 53.8558 47.9348C53.4993 47.7004 53.1219 47.3637 52.6422 46.8334L51.4386 53.7693H44.1362ZM178.172 38.8477C178.131 37.6332 177.519 36.8079 176.264 36.8079C173.235 36.8079 170.013 42.7437 169.462 45.1302C174.429 45.1402 178.294 42.1826 178.172 38.8477ZM178.824 48.1493L179.406 48.5475C177.927 51.5557 174.919 53.9729 171.389 53.9729C168.502 53.9729 166.127 52.0453 166.004 48.4343C165.769 41.9582 171.838 35.9508 176.805 35.9508C178.937 35.9508 180.915 36.8785 180.997 39.1735C181.18 44.3248 173.949 45.8949 169.186 46.0071C169.033 46.5474 168.972 47.0886 169.003 47.904C169.084 50.0362 170.369 51.8317 173.042 51.8317C175.347 51.8317 177.652 49.9746 178.825 48.1484L178.824 48.1493Z" fill="white"></path>
  <path d="M149.206 38.6814C149.716 38.6099 150.542 38.5185 150.899 38.5185C151.44 38.5185 151.949 38.6208 151.98 39.1611C151.991 39.4778 151.419 41.772 151.297 42.3023L150.145 47.382C149.675 49.4626 149.175 51.6355 148.727 53.3586H151.684L153.347 45.3114C158.416 40.0281 160.374 38.3041 161.568 38.3041C162.108 38.3041 162.475 38.59 162.506 39.2326C162.537 40.1602 161.955 42.2716 161.761 42.8842L160.069 48.7486C159.681 50.0645 159.396 51.2572 159.426 52.1043C159.477 53.3894 160.252 53.9595 161.415 53.9595C163.577 53.9595 165.148 51.7061 166.514 49.4925L166.116 48.7685C165.566 49.6554 164.281 51.6038 163.271 51.6038C162.954 51.6038 162.649 51.3903 162.638 50.8599C162.608 50.1767 162.893 49.1459 163.098 48.4626L164.985 41.5883C165.494 39.6914 165.729 38.4778 165.719 37.8253C165.668 36.5402 164.922 35.9384 163.77 35.9384C161.823 35.9384 159.243 37.3656 153.766 43.6589H153.684L154.377 40.5892C154.755 38.9059 155.121 37.152 155.469 35.9375C153.571 36.6217 150.859 37.3864 149.185 37.7131L149.206 38.6814Z" fill="white"></path>
</svg>
