<?xml version="1.0" encoding="UTF-8"?>
<svg xmlns="http://www.w3.org/2000/svg" width="36" height="36" viewBox="0 0 36 36" fill="none">
  <path d="M33.8032 33.0015H3L12.3606 20.3398C14.0499 21.589 16.139 22.3297 18.4016 22.3297C20.6643 22.3297 22.7534 21.589 24.4426 20.3398L33.8032 33.0015Z" stroke="white" stroke-width="0.830619" stroke-miterlimit="10"></path>
  <path d="M28.5659 12.1634C28.5659 15.514 26.9448 18.4833 24.4466 20.3369L18.4056 12.1634L12.3646 20.3369C9.86324 18.4864 8.24219 15.514 8.24219 12.1634C8.24219 6.55012 12.7923 2 18.4056 2C24.0188 2 28.5659 6.55012 28.5659 12.1634Z" stroke="white" stroke-width="0.830619" stroke-miterlimit="10"></path>
  <path d="M28.5659 12.1634C28.5659 15.514 26.9448 18.4833 24.4466 20.3369L18.4056 12.1634L12.3646 20.3369C9.86324 18.4864 8.24219 15.514 8.24219 12.1634C8.24219 6.55012 12.7923 2 18.4056 2C24.0188 2 28.5659 6.55012 28.5659 12.1634Z" stroke="white" stroke-width="0.830619" stroke-miterlimit="10"></path>
</svg>
