<?xml version="1.0" encoding="UTF-8"?>
<svg xmlns="http://www.w3.org/2000/svg" width="36" height="36" viewBox="0 0 36 36" fill="none">
  <path d="M21.264 25.1218C27.0017 25.1218 31.653 20.4704 31.653 14.7328C31.653 8.99506 27.0017 4.34375 21.264 4.34375C15.5263 4.34375 10.875 8.99506 10.875 14.7328C10.875 20.4704 15.5263 25.1218 21.264 25.1218Z" stroke="white" stroke-width="0.803944" stroke-miterlimit="10"></path>
  <path d="M24.528 17.2552C27.7191 17.2552 30.306 14.6683 30.306 11.4772C30.306 8.28612 27.7191 5.69922 24.528 5.69922C21.3369 5.69922 18.75 8.28612 18.75 11.4772C18.75 14.6683 21.3369 17.2552 24.528 17.2552Z" stroke="white" stroke-width="0.803944" stroke-miterlimit="10"></path>
  <path d="M18 33C26.2843 33 33 26.2843 33 18C33 9.71573 26.2843 3 18 3C9.71573 3 3 9.71573 3 18C3 26.2843 9.71573 33 18 33Z" stroke="white" stroke-width="0.803944" stroke-miterlimit="10"></path>
</svg>
