<?xml version="1.0" encoding="UTF-8"?>
<svg xmlns="http://www.w3.org/2000/svg" width="36" height="36" viewBox="0 0 36 36" fill="none">
  <path d="M17.9717 21.9278C23.4746 21.9278 27.9356 17.4668 27.9356 11.9639C27.9356 6.46098 23.4746 2 17.9717 2C12.4688 2 8.00781 6.46098 8.00781 11.9639C8.00781 17.4668 12.4688 21.9278 17.9717 21.9278Z" stroke="white" stroke-width="1.27799" stroke-miterlimit="10"></path>
  <path d="M11.9639 34.002C17.4668 34.002 21.9278 29.541 21.9278 24.0381C21.9278 18.5352 17.4668 14.0742 11.9639 14.0742C6.46099 14.0742 2 18.5352 2 24.0381C2 29.541 6.46099 34.002 11.9639 34.002Z" stroke="white" stroke-width="1.27799" stroke-miterlimit="10"></path>
  <path d="M23.9873 34.002C29.4902 34.002 33.9512 29.541 33.9512 24.0381C33.9512 18.5352 29.4902 14.0742 23.9873 14.0742C18.4844 14.0742 14.0234 18.5352 14.0234 24.0381C14.0234 29.541 18.4844 34.002 23.9873 34.002Z" stroke="white" stroke-width="1.27799" stroke-miterlimit="10"></path>
</svg>
