<?xml version="1.0" encoding="UTF-8"?>
<svg xmlns="http://www.w3.org/2000/svg" width="196" height="200" viewBox="0 0 196 200" fill="none">
  <path d="M143.287 87.7492C153.855 84.0843 160.792 94.5788 168.946 92.1305C160.826 85.0361 155.665 74.733 155.459 63.218V63.1837C155.469 63.1444 155.474 63.1002 155.474 63.0561C155.474 62.693 155.179 62.3938 154.811 62.3938C154.645 62.3938 154.492 62.4575 154.375 62.5606C150.312 65.5239 147.481 69.9641 146.672 75.0715L146.657 75.1794C143.679 73.1728 140.009 71.9757 136.06 71.9757C133.553 71.9757 131.158 72.4565 128.965 73.3347L129.093 73.2905C134.701 77.2499 139.411 82.0482 143.154 87.5579L143.277 87.7492H143.287ZM131.526 55.2748C126.237 55.579 121.454 57.5366 117.627 60.6275L117.671 60.5932C119.354 55.8586 121.464 51.757 124.03 47.9988L123.907 48.1852C117.337 48.6612 111.499 51.443 107.123 55.7163L107.128 55.7114L103.85 47.1255L111.121 40.7032L101.387 40.0163L97.5015 30.9594L93.6157 40.0163L83.8817 40.7032L91.1528 47.1255L87.8803 55.7114C83.5088 51.4479 77.6704 48.6661 71.1892 48.1902L71.1009 48.1852C73.5393 51.757 75.6441 55.8586 77.2092 60.2105L77.3269 60.5932C73.5491 57.5366 68.7655 55.579 63.5404 55.2797L63.4766 55.2748C66.5823 59.1458 69.3249 63.532 71.5278 68.2224L71.6946 68.6198C71.827 68.9583 72.1509 69.1938 72.5286 69.1938C72.7053 69.1938 72.8721 69.1447 73.0094 69.0515H73.0045C80.148 65.4356 88.577 63.321 97.4965 63.321C106.416 63.321 114.85 65.4356 122.307 69.1987L121.989 69.0564C122.121 69.1447 122.288 69.1938 122.464 69.1938C122.842 69.1938 123.166 68.9583 123.294 68.6247C125.663 63.5369 128.406 59.1458 131.615 55.1423L131.516 55.2699L131.526 55.2748ZM84.4999 81.013C85.6332 80.3065 87.007 79.8894 88.4789 79.8894C89.7986 79.8894 91.0399 80.228 92.1193 80.8167L92.08 80.7971C92.2174 79.2369 89.4258 77.5344 86.639 77.5344C84.6127 77.5344 83.6119 78.2164 83.6119 79.2075C83.6119 79.9385 83.9602 80.591 84.495 81.0081L84.4999 81.013ZM108.364 77.5393C108.29 77.5344 108.207 77.5344 108.119 77.5344C106.357 77.5344 104.763 78.2409 103.605 79.3841C103.551 79.5509 103.517 79.7472 103.517 79.9483C103.517 80.2034 103.57 80.4438 103.659 80.6646L103.654 80.6548C106.622 79.6392 109.237 79.6 110.503 81.013C111.043 80.591 111.391 79.9434 111.391 79.2124C111.391 78.2262 110.385 77.5393 108.364 77.5393ZM97.5015 66.6278C97.2512 66.6131 96.9569 66.6033 96.6576 66.6033C90.7259 66.6033 85.643 70.2241 83.499 75.3806L83.4647 75.4738C83.3518 75.8565 83.5039 76.1018 83.9455 75.9056C85.1181 75.3904 86.482 75.0862 87.9146 75.0862C87.9735 75.0862 88.0324 75.0862 88.0913 75.0862H88.0814C88.1943 75.0813 88.3219 75.0764 88.4494 75.0764C90.9516 75.0764 93.2036 76.1558 94.7589 77.8779L94.7638 77.8877C95.0827 78.9082 95.2642 80.0857 95.2642 81.3024C95.2642 82.5584 95.0729 83.7654 94.7098 84.8987L94.7343 84.8153C93.5863 84.5602 93.1741 83.6722 92.0555 83.6722C90.9369 83.6722 90.0685 84.4572 88.1698 84.4572C86.2759 84.4572 86.0503 83.5593 84.8041 83.5593C83.3371 83.5593 83.0673 85.0704 83.0673 86.7778C83.0673 94.3825 90.0538 104.843 97.4867 104.843C104.92 104.843 111.906 94.3825 111.906 86.7778C111.906 85.0704 111.553 83.6133 110.022 83.4121C109.227 84.0647 108.202 84.4621 107.083 84.4621C106.985 84.4621 106.892 84.4572 106.794 84.4522H106.809C104.91 84.4522 104.385 83.6672 103.266 83.6672C101.917 83.6672 102.05 86.5129 100.45 86.6748C99.9055 85.2667 99.5915 83.6427 99.5915 81.9402C99.5915 80.488 99.8221 79.0946 100.244 77.7847L100.22 77.8779C101.785 76.1509 104.032 75.0715 106.539 75.0715C106.666 75.0715 106.794 75.0764 106.921 75.0813H106.902C106.951 75.0813 107.01 75.0813 107.074 75.0813C108.506 75.0813 109.87 75.3806 111.106 75.9252L111.043 75.9007C111.484 76.0969 111.641 75.8516 111.524 75.4689C109.345 70.2241 104.262 66.5984 98.3355 66.5984C98.0411 66.5984 97.7468 66.6082 97.4524 66.6229H97.4916L97.5015 66.6278ZM65.9052 73.2856C63.8397 72.4565 61.4503 71.9757 58.9432 71.9757C54.9937 71.9757 51.3238 73.1728 48.277 75.2236L48.3457 75.1794C47.5215 69.9592 44.6906 65.519 40.6871 62.5949L40.6331 62.5557C40.5153 62.4526 40.3633 62.3938 40.1964 62.3938C39.8334 62.3938 39.5341 62.6881 39.5341 63.0561C39.5341 63.1002 39.539 63.1444 39.5488 63.1886V63.1837C39.3428 74.733 34.1814 85.041 26.1057 92.0913L26.0615 92.1305C34.2108 94.5788 41.1532 84.0843 51.7212 87.7492C55.5874 82.0482 60.2973 77.2499 65.7335 73.4034L65.9052 73.2856ZM170.894 104.112C170.802 105.858 170.647 107.598 170.428 109.332C162.107 110.711 159.134 103.297 150.612 103.665C151.043 105.112 151.475 106.982 151.809 108.88L151.853 109.199C158.884 109.194 161.714 115.764 169.535 114.797C169.123 116.806 168.631 118.788 168.058 120.744C161.876 121.352 159.698 115.205 152.54 115.376C152.599 116.394 152.628 117.422 152.628 118.462L152.599 120.18L166.493 125.483C165.767 127.452 164.957 129.387 164.065 131.287C159.889 131.057 158.447 125.699 152.093 126.126C151.904 127.493 151.663 128.851 151.372 130.198C156.892 129.811 158.079 134.893 162.033 135.306C161.026 137.14 159.943 138.93 158.785 140.673C156.445 139.417 154.414 135.634 149.969 135.399C150.427 133.989 150.824 132.561 151.161 131.116C146.422 131.017 142.134 129.143 138.93 126.131L138.94 126.141C140.166 119.169 129.343 112.07 129.343 106.962C129.343 101.413 132.149 98.3468 132.149 90.8696C131.938 84.7368 129.397 79.232 125.389 75.1843C124.648 74.4288 123.823 73.7566 122.926 73.1924L122.872 73.1581C126.767 77.5295 129.225 83.26 129.471 89.5547V89.6038C129.471 96.6443 126.193 100.363 126.193 106.859C126.193 113.355 135.702 118.978 135.702 125.679C135.392 129.546 134.082 133.058 132.037 136.017L132.081 135.948C135.515 139.564 140.181 141.983 145.401 142.528L145.494 142.537C145.583 142.552 145.681 142.557 145.784 142.557C146.647 142.557 147.383 142.032 147.692 141.281L147.697 141.267C148.057 140.478 148.397 139.68 148.718 138.872C152.579 139.024 154.35 142.532 156.489 143.936C155.315 145.512 154.082 147.035 152.79 148.503C151.254 146.296 149.159 144.578 146.701 143.538L146.608 143.504C146.104 144.485 145.571 145.45 145.009 146.399C147.27 147.414 149.11 149.043 150.356 151.069L150.386 151.123C148.999 152.559 147.555 153.938 146.054 155.259C144.999 153.537 143.65 152.1 142.065 150.976L142.021 150.947C141.416 151.764 140.788 152.562 140.137 153.341C141.535 154.43 142.683 155.77 143.522 157.3L143.556 157.369C141.82 158.762 140.029 160.082 138.169 161.314C137.252 153.851 127.062 148.734 129.809 140.074C128.686 141.684 127.964 143.651 127.832 145.775V145.81C127.832 152.08 134.509 157.055 135.044 163.286C133.661 164.113 132.246 164.895 130.8 165.631C130.56 158.782 123.49 151.29 123.49 145.668C123.49 139.392 131.708 133.093 131.708 125.684C131.708 118.271 122.229 113.144 122.229 106.633C122.229 100.123 126.262 96.3892 126.262 88.0534C126.164 81.6066 123.343 75.8418 118.903 71.8383L118.883 71.8187C118.152 71.1563 117.328 70.5774 116.435 70.1064L116.371 70.072C120.502 74.3797 123.048 80.2329 123.048 86.6846C123.048 86.6944 123.048 86.7091 123.048 86.7189C123.048 94.5542 118.427 98.9061 118.427 106.579C118.427 114.253 127.729 118.521 127.729 125.679C127.729 132.838 119.069 138.863 119.069 146.212C119.069 152.899 126.703 159.572 126.816 167.505C125.142 168.235 123.442 168.899 121.719 169.497C122.69 161.485 114.094 153.218 114.094 146.678C114.094 139.53 123.078 133.382 123.078 125.679C123.078 117.967 113.942 114.38 113.942 106.467C113.942 98.5577 119.545 94.1764 119.545 85.4335C119.506 78.6383 116.292 72.6037 111.317 68.7326L111.268 68.6983L110.954 68.4628C110.493 68.1193 110.111 68.5315 110.439 68.9387C113.766 72.8293 115.787 77.922 115.787 83.4857C115.787 83.731 115.782 83.9714 115.777 84.2118V84.1775C115.777 92.1747 109.34 98.6706 109.34 106.418C109.34 115.563 117.985 118.173 117.985 125.675C117.985 133.176 108.717 139.172 108.717 147.135C108.717 154.518 117.49 162.712 115.983 171.239C114.214 171.7 112.43 172.093 110.631 172.416C112.279 161.804 103.674 154.18 103.674 147.238C103.674 139.721 113.27 133.019 113.27 125.675C113.27 118.747 106.382 116.48 105.474 109.396C105.405 108.532 104.689 107.86 103.816 107.86C103.703 107.86 103.595 107.87 103.487 107.894H103.497C101.726 108.513 99.6798 108.93 97.5554 109.067L97.4867 109.072C95.2936 108.93 93.2428 108.513 91.3098 107.845L91.4766 107.894C91.3834 107.875 91.2754 107.865 91.1626 107.865C90.2893 107.865 89.5729 108.537 89.5043 109.396C88.6015 116.485 81.7082 118.752 81.7082 125.679C81.7082 133.024 91.3098 139.721 91.3098 147.242C91.3098 154.185 82.7042 161.809 84.3478 172.421C82.5488 172.094 80.7646 171.702 78.9951 171.244C77.4889 162.722 86.2661 154.523 86.2661 147.139C86.2661 139.177 76.9982 133.176 76.9982 125.679C76.9982 118.183 85.643 115.563 85.643 106.422C85.643 98.6755 79.206 92.1796 79.206 84.1824C79.2011 83.9763 79.1962 83.7359 79.1962 83.4906C79.1962 77.9269 81.2225 72.8343 84.5735 68.9093L84.5489 68.9387C84.8728 68.5315 84.495 68.1193 84.0289 68.4628L83.7198 68.6983C78.6958 72.6037 75.4871 78.6383 75.4479 85.4188C75.4479 94.1617 81.0508 98.543 81.0508 106.457C81.0508 114.371 71.9154 117.957 71.9154 125.67C71.9154 133.377 80.8987 139.52 80.8987 146.668C80.8987 153.208 72.3079 161.475 73.2793 169.487C71.5556 168.886 69.8547 168.222 68.1768 167.495C68.2896 159.562 75.9189 152.885 75.9189 146.202C75.9189 138.853 67.2642 132.823 67.2642 125.67C67.2642 118.516 76.5665 114.248 76.5665 106.57C76.5665 98.8963 71.9497 94.5444 71.9497 86.7091C71.9497 86.6993 71.9497 86.6846 71.9497 86.6748C71.9497 80.2231 74.4911 74.3699 78.632 70.0573L78.6222 70.0671C77.6655 70.5676 76.8412 71.1514 76.1004 71.8187L76.1102 71.8088C71.6455 75.8271 68.8244 81.5968 68.7312 88.024V88.0387C68.7312 96.3744 72.7641 100.113 72.7641 106.614C72.7641 113.119 63.2853 118.251 63.2853 125.665C63.2853 133.073 71.5032 139.373 71.5032 145.648C71.5032 151.27 64.4284 158.762 64.188 165.611C62.7488 164.876 61.3342 164.094 59.9441 163.266C60.4789 157.035 67.1563 152.06 67.1563 145.79C67.0238 143.631 66.3026 141.664 65.1545 140.02L65.1791 140.055C67.9266 148.714 57.7363 153.832 56.8188 161.294C54.9643 160.061 53.1686 158.746 51.4318 157.349C52.3051 155.75 53.4531 154.41 54.822 153.346L54.8514 153.326C54.1972 152.548 53.5692 151.75 52.9674 150.932C51.3336 152.08 49.9844 153.518 48.9639 155.181L48.9296 155.245C47.4315 153.923 45.9891 152.544 44.6023 151.109C45.8779 149.028 47.7128 147.399 49.901 146.413L49.9746 146.384C49.412 145.435 48.8789 144.47 48.3752 143.489C45.8288 144.564 43.7289 146.281 42.2276 148.444L42.1982 148.489C40.9062 147.013 39.6747 145.491 38.5038 143.921C40.6429 142.518 42.4092 139.005 46.2704 138.858C46.5942 139.662 46.9344 140.46 47.2909 141.252C47.6049 142.012 48.3457 142.542 49.2043 142.542C49.3074 142.542 49.4055 142.532 49.5036 142.523H49.4938C54.8073 141.968 59.4731 139.549 62.8977 135.943L62.9075 135.934C60.9057 133.044 59.5958 129.536 59.2916 125.738L59.2867 125.665C59.2867 118.968 68.795 113.345 68.795 106.844C68.795 100.344 65.5176 96.6296 65.5176 89.5891C65.7629 83.2453 68.2209 77.5197 72.141 73.1188L72.1165 73.1433C71.1647 73.7419 70.3404 74.4141 69.5996 75.1696L69.5947 75.1745C65.5912 79.2222 63.0498 84.7221 62.8388 90.8157V90.8549C62.8388 98.332 65.6452 101.403 65.6452 106.947C65.6452 112.055 54.822 119.154 56.0436 126.126C52.8448 129.129 48.5616 131.003 43.8369 131.101H43.8173C44.1607 132.543 44.5581 133.971 45.0095 135.384C40.5693 135.62 38.5381 139.407 36.1929 140.658C35.0351 138.915 33.9524 137.126 32.945 135.291C36.8994 134.879 38.0868 129.801 43.6112 130.183C43.3201 128.836 43.078 127.478 42.8851 126.111C36.5315 125.684 35.089 131.047 30.9138 131.273C30.0209 129.372 29.2113 127.438 28.4852 125.469L42.3846 120.165L42.3552 118.448C42.3552 117.408 42.3846 116.382 42.4435 115.362C35.2853 115.195 33.1069 121.337 26.925 120.729C26.3526 118.77 25.8604 116.789 25.4483 114.788C33.2639 115.754 36.0997 109.185 43.1304 109.19C43.5082 106.972 43.9399 105.103 44.4649 103.278L44.3717 103.655C35.8495 103.287 32.8714 110.701 24.5553 109.322C24.3362 107.588 24.1808 105.848 24.0892 104.102C33.7594 105.181 37.3852 97.233 46.1919 98.2045C47.1535 95.7857 48.12 93.779 49.2092 91.846L49.0768 92.106C38.0377 90.1631 34.2893 99.3967 24.0156 97.9788C25.1882 58.297 57.6333 26.5781 97.4867 26.5781C137.34 26.5781 169.795 58.3019 170.958 97.8807V97.9886C160.679 99.4065 156.931 90.1778 145.897 92.1158C146.849 93.7839 147.815 95.7906 148.654 97.8659L148.782 98.2143C157.583 97.2379 161.209 105.191 170.879 104.112H170.894ZM97.5015 90.2122C96.6085 90.2122 96.4123 89.8737 95.799 89.8786C95.0336 89.9325 94.3516 90.2613 93.8463 90.7666C93.861 90.9923 93.9542 91.1934 94.1014 91.3455C95.4065 91.5418 95.9952 92.2679 97.5064 92.2679C99.0175 92.2679 99.6013 91.5418 100.911 91.3455C101.054 91.1934 101.147 90.9923 101.162 90.7666V90.7617C100.656 90.2563 99.9742 89.9227 99.2137 89.8737H99.2039C98.5906 89.8688 98.3944 90.2073 97.5015 90.2073V90.2122ZM92.1684 94.7505C91.9427 94.8388 91.766 95.0105 91.6777 95.2264V95.2313C93.2183 96.4186 94.2829 99.117 97.5015 99.117C100.72 99.117 101.785 96.4186 103.325 95.2313C103.237 95.0056 103.06 94.8339 102.839 94.7505C101.358 95.0547 99.6504 95.2313 97.9087 95.2313C97.7664 95.2313 97.6241 95.2313 97.4818 95.2264H97.5015C97.3788 95.2264 97.2365 95.2313 97.0942 95.2313C95.3525 95.2313 93.65 95.0547 92.0064 94.7259L92.1684 94.7554V94.7505ZM104.89 58.3559C102.668 57.9487 100.112 57.7181 97.5015 57.7181C94.8913 57.7181 92.3303 57.9487 89.8477 58.3952L90.1077 58.3559C89.7398 58.4197 89.5975 58.0615 89.8771 57.8506C90.1323 57.6641 97.4965 52.0563 97.4965 52.0563L105.111 57.8506C105.401 58.0615 105.258 58.4246 104.89 58.3559Z" fill="white"></path>
</svg>
