<?xml version="1.0" encoding="UTF-8"?>
<svg xmlns="http://www.w3.org/2000/svg" width="318" height="200" viewBox="0 0 318 200" fill="none">
  <path d="M209.664 42.1056C211.402 40.3847 213.852 39.3239 216.32 39.5549C217.954 39.6115 219.68 40.611 220.116 42.2636C220.566 44.008 220.208 45.828 219.8 47.5442C219.133 50.267 218.223 52.9238 217.565 55.649C216.15 60.9885 214.764 66.3446 213.826 71.7925C213.698 72.5752 213.496 73.3602 213.512 74.1594C214.399 75.1519 215.71 75.7058 216.481 76.828C218.18 79.0534 217.831 82.1628 216.801 84.598C215.896 86.7904 213.496 87.9903 211.206 88.0115C211.065 89.0582 210.954 90.1096 210.867 91.1634C210.556 94.7773 209.999 98.3677 209.78 101.989C209.523 105.053 209.447 108.13 209.471 111.204C209.504 114.297 209.968 117.486 211.534 120.204C212.074 121.216 212.909 122.112 213.1 123.278C213.321 124.794 213.012 126.376 212.303 127.729C211.011 130.042 208.528 131.588 205.908 131.874C204.23 132.017 202.48 131.614 201.111 130.617C200.144 129.926 199.453 128.934 198.835 127.937C197.508 125.784 196.742 123.326 196.35 120.839C196.018 118.667 196.159 116.466 196.209 114.283C194.209 116.506 192.08 118.637 189.633 120.367C185.788 123.142 181.525 125.636 176.753 126.303C174.659 126.591 172.363 126.772 170.451 125.702C169.149 125.006 168.26 123.785 167.496 122.562C165.766 125.869 162.064 128.154 158.297 127.859C156.283 127.699 154.626 126.303 153.437 124.764C151.714 122.458 150.91 119.629 150.285 116.862C149.274 112.439 149.476 107.861 149.769 103.37C149.898 101.409 150.313 99.478 150.349 97.5096C149.354 97.7925 148.375 98.1767 147.538 98.7967C145.027 100.584 143.292 103.231 141.951 105.956C139.788 110.273 138.539 114.964 137.471 119.648C137.063 121.534 136.535 123.392 135.985 125.242C135.448 127.114 134.21 128.722 132.715 129.941C131.591 130.862 130.148 131.244 128.738 131.456C127.802 131.588 126.814 131.628 125.923 131.275C124.973 130.9 124.22 130.131 123.756 129.236C122.869 127.529 122.513 125.601 122.414 123.696C122.254 120.735 122.384 117.764 122.631 114.813C122.893 112.649 122.957 110.461 123.372 108.316C124.39 102.267 125.597 96.2389 127.309 90.343C128.203 87.4835 129.066 84.5509 130.777 82.052C131.966 80.2132 133.581 78.655 135.474 77.5517C137.084 76.6182 139.01 76.2881 140.852 76.4956C142.149 76.6417 143.342 77.4928 143.91 78.6644C144.45 79.9256 144.285 81.3613 143.924 82.6461C143.014 85.739 141.543 88.6221 140.413 91.6325C141.373 90.4774 142.217 89.2256 143.219 88.1035C146.463 84.4731 150.309 81.1397 155.026 79.638C156.997 78.9968 159.303 78.7351 161.173 79.8148C163.222 81.0572 164.356 83.4429 164.533 85.7767C164.714 88.3534 164.549 90.9489 164.09 93.4878C163.79 95.1144 163.644 96.7646 163.352 98.3936C162.779 101.291 162.559 104.271 162.812 107.217C163.12 109.95 163.873 112.878 166.016 114.763C166.301 110.049 167.329 105.381 169.071 100.991C172.9 91.7928 179.608 83.7753 188.105 78.5489C190.784 76.9435 193.62 75.6068 196.541 74.5012C197.949 73.959 199.425 73.6242 200.863 73.1693C201.424 70.5007 201.674 67.7826 202.202 65.1093C202.683 62.6764 203.016 60.2106 203.645 57.8084C204.376 54.9017 204.883 51.936 205.814 49.0812C206.562 46.5187 207.705 43.975 209.664 42.1056ZM195.829 88.8531C191.288 91.0125 187.53 94.5911 184.684 98.7001C182.437 101.953 180.605 105.619 180.098 109.582C180.042 110.369 179.891 111.22 180.209 111.97C180.928 112.583 181.959 112.14 182.706 111.796C185.559 110.23 188.039 108.033 190.112 105.534C192.91 102.267 195.063 98.495 196.808 94.5793C197.616 92.4034 198.411 90.1898 198.682 87.8748C197.701 88.1058 196.735 88.4076 195.829 88.8531Z" fill="white"></path>
  <path d="M86.1154 53.4114C87.7352 52.1714 89.9892 51.6551 91.9272 52.4C94.035 53.2817 95.2988 55.4859 95.5935 57.6783C95.8906 59.8023 95.1644 61.8792 94.4076 63.8264C93.4692 66.2263 92.7312 68.6968 91.8353 71.1132C90.3358 75.2339 89.1946 79.4726 87.9191 83.6664C87.0986 86.7334 86.1885 89.7768 85.4129 92.8556C84.5051 96.2008 83.7059 99.5766 82.8311 102.931C82.4233 104.881 81.7937 106.781 81.4519 108.747C83.1589 109.063 84.8588 109.457 86.5964 109.567C87.8201 105.675 89.1121 101.781 90.9535 98.1292C92.4978 94.8759 94.4547 91.8136 96.7936 89.0743C99.6252 85.9413 102.917 83.0889 106.837 81.4174C109.41 80.4179 112.152 79.706 114.934 79.8663C117.077 79.8663 119.201 80.7904 120.635 82.384C121.927 83.8291 122.762 85.6867 122.943 87.6174C123.195 90.1281 122.95 92.6717 122.382 95.1258C121.752 97.8628 120.8 100.538 119.437 103.002C117.028 107.375 113.757 111.279 109.825 114.36C106.948 116.67 103.631 118.445 100.097 119.501C99.8091 119.633 99.4224 119.662 99.2527 119.959C99.1937 120.845 99.4342 121.734 99.8091 122.533C100.342 123.714 101.648 124.351 102.888 124.461C104.246 124.551 105.661 124.332 106.859 123.658C108.448 122.776 109.768 121.482 111.378 120.628C112.524 120.004 113.828 119.6 115.146 119.702C116.591 119.822 117.744 121.128 117.931 122.526C118.216 124.325 117.546 126.093 116.745 127.668C115.132 130.699 112.623 133.198 109.735 135.025C108.099 136.1 106.276 136.871 104.397 137.408C102.037 138.123 99.5238 138.13 97.0907 137.899C93.5706 137.505 90.5008 135.251 88.5392 132.378C86.2239 129.198 85.4317 125.246 84.9059 121.425C82.8146 121.192 80.7469 120.793 78.6556 120.565C77.0335 127.705 75.2723 134.811 73.4733 141.906C73.0631 143.479 72.5397 145.058 71.6013 146.402C70.7879 147.566 69.6161 148.458 68.3123 149.002C65.5019 150.193 62.2152 150.461 59.3435 149.335C58.1717 148.889 57.1084 148.132 56.3798 147.109C55.2151 145.499 54.7106 143.54 54.2956 141.631C53.1309 136.85 52.3246 131.986 51.7894 127.097C51.2494 123.311 51.0089 119.492 50.6694 115.687C50.4714 113.177 50.3724 110.659 50.3464 108.143C50.3394 106.991 50.3229 105.828 50.0541 104.702C49.0591 104.954 48.821 106.022 48.5428 106.866C47.7223 109.638 46.89 112.408 46.0978 115.19C44.6808 120.572 43.2049 125.935 41.8492 131.331C41.0476 134.014 40.576 136.777 39.8593 139.483C39.0081 142.578 38.3126 145.714 37.478 148.816C36.9852 150.558 36.7824 152.43 35.8134 153.998C34.4742 156.188 32.291 157.781 29.8979 158.646C27.6675 159.405 25.2367 159.771 22.9049 159.29C21.2002 158.948 19.8563 157.666 18.9722 156.225C17.6566 154.04 17.0601 151.529 16.4754 149.073C15.6997 145.824 15.2989 142.503 15.1102 139.172C14.6835 134.103 14.5656 129.014 14.5232 123.931C14.6128 117.403 14.7778 110.876 15.2847 104.367C15.4663 99.7982 15.8034 95.239 16.1288 90.6774C16.2443 88.8763 16.4989 87.0847 16.5249 85.2789C16.598 82.1294 16.855 78.9799 16.7371 75.828C16.6404 74.0482 16.4164 72.1835 15.4191 70.6582C14.9994 69.9463 14.3864 69.3216 14.1719 68.5059C14.2096 67.405 15.1079 66.5964 15.8789 65.9151C17.982 64.2201 20.5519 63.1569 23.1902 62.6336C24.659 62.3389 26.1774 62.1668 27.6675 62.3978C29.1741 62.6289 30.6335 63.4657 31.4115 64.8024C32.0128 65.7784 32.2132 66.9359 32.258 68.0627C32.39 70.901 31.9986 73.7252 31.8242 76.5541C31.1546 83.1549 30.1808 89.7226 29.6244 96.3352C29.3815 98.5747 29.2967 100.826 29.0468 103.063C28.8298 105.008 28.8369 106.972 28.6436 108.919C28.429 111.01 28.429 113.115 28.3347 115.216C28.2758 118.108 28.1933 121.001 28.2522 123.893C28.2994 125.494 28.198 127.132 28.7072 128.677C29.1363 128.552 29.6904 128.533 29.8908 128.054C30.7042 126.543 30.9777 124.822 31.421 123.181C32.7366 118.342 34.1772 113.535 35.5706 108.714C36.2142 106.677 36.707 104.598 37.4002 102.578C38.8266 98.3036 40.1516 93.9966 41.5922 89.7273C42.6367 86.566 43.7825 83.4401 44.9095 80.3071C45.9115 77.6715 46.7745 74.9628 48.142 72.4828C48.8752 71.1651 49.8254 69.9133 51.1268 69.1165C52.7183 68.1664 54.6328 67.8906 56.4576 68.0297C58.5961 68.1876 60.7628 69.199 61.97 71.0189C62.9815 72.5819 63.0522 74.5102 63.0498 76.3136C63.0121 81.1817 62.8211 86.0498 62.8895 90.9178C62.9602 93.2776 62.9178 95.6397 63.0593 97.9971C63.1937 100.145 63.1772 102.302 63.3469 104.449C63.5544 109.68 63.5591 114.935 64.3018 120.129C64.4362 120.866 64.5234 121.668 65.0162 122.271C65.3062 122.359 65.6834 122.356 65.8815 122.083C66.2658 121.588 66.3766 120.951 66.5251 120.357C66.8222 118.933 67.124 117.509 67.3951 116.081C68.1873 111.71 69.1941 107.382 69.9981 103.011C71.2665 97.1367 72.5114 91.2549 74.0345 85.4392C75.6849 78.9917 77.4485 72.5748 79.3936 66.2098C80.2518 63.494 81.2468 60.816 82.494 58.2535C83.4088 56.4548 84.4933 54.6584 86.1154 53.4114ZM110.558 91.4789C109.587 91.7217 108.761 92.337 108.012 92.9782C106.022 94.725 104.499 96.9174 103.053 99.1169C101.992 100.713 101.141 102.436 100.342 104.176C99.5733 105.894 98.9485 107.7 98.7552 109.584C99.8798 109.266 100.927 108.733 101.893 108.085C104.077 106.722 106.064 105.034 107.684 103.028C108.889 101.519 110.049 99.9467 110.857 98.181C111.536 96.7123 112.131 95.1517 112.147 93.511C112.142 92.9617 112.116 92.3629 111.793 91.8962C111.518 91.5119 111.008 91.3422 110.558 91.4789Z" fill="white"></path>
  <path d="M269.203 59.4953C270.891 59.2148 272.749 59.3916 274.192 60.3794C275.621 61.4001 276.642 63.0079 276.852 64.7642C277.267 67.8759 276.873 71.1362 275.484 73.9722C274.649 75.8935 273.289 77.638 271.434 78.6588C270.25 79.3 268.821 79.3235 267.536 79.0147C266.093 78.6729 264.879 77.3622 264.797 75.8581C264.655 74.472 265.193 73.1589 265.631 71.8765C266.204 70.2286 266.442 68.437 266.126 66.7114C265.865 65.3134 265.584 63.866 265.907 62.4539C266.265 60.9145 267.687 59.7829 269.203 59.4953Z" fill="white"></path>
  <path d="M223.926 77.817C225.383 76.0631 227.307 74.6109 229.542 74.0428C230.95 73.741 232.447 73.6986 233.847 74.0758C235.71 74.6204 236.962 76.5039 237.002 78.4064C237.136 80.5634 236.245 82.5955 235.276 84.4673C233.675 87.5649 232.529 90.8795 231.638 94.2458C230.671 97.5274 230.096 100.931 229.976 104.354C229.903 105.974 229.87 107.608 230.108 109.218C230.219 109.875 230.36 110.554 230.735 111.12C231.127 111.705 231.9 111.816 232.553 111.783C233.376 111.75 234.121 111.321 234.72 110.778C236.273 109.383 237.457 107.638 238.556 105.877C240.065 103.449 241.258 100.828 242.118 98.1002C243.113 95.0757 244.169 92.0676 245.07 89.0124C246.315 85.323 247.315 81.4639 249.543 78.2107C250.915 76.2658 252.886 74.5897 255.27 74.1088C256.887 73.8283 258.719 73.9202 260.065 74.9622C261.39 75.9924 261.93 77.7274 262.013 79.347C262.22 83.3287 260.907 87.1477 260.009 90.9714C259.202 94.5523 258.24 98.0979 257.55 101.705C256.908 105.328 256.18 108.94 255.793 112.603C255.265 116.474 254.857 120.359 254.532 124.251C254.062 128.386 253.732 132.575 252.511 136.573C251.599 139.452 250.729 142.391 249.121 144.975C247.034 148.348 244.261 151.335 240.932 153.509C237.374 155.661 233.376 157.05 229.273 157.7C226.319 158.198 223.266 158.368 220.312 157.79C217.81 157.245 215.33 156.121 213.62 154.167C211.883 152.203 211.275 149.383 211.89 146.854C212.215 145.576 213.21 144.529 214.406 144.016C215.54 143.551 216.794 143.759 217.966 143.94C220.677 144.423 223.452 144.48 226.189 144.254C228.656 144.056 231.091 143.33 233.208 142.038C235.036 140.913 236.512 139.27 237.556 137.403C239.039 134.932 240.062 132.184 240.498 129.334C241.095 125.498 241.3 121.618 241.852 117.775C240.746 119.14 239.654 120.529 238.339 121.7C235.776 124.055 232.944 126.342 229.523 127.266C227.081 127.966 224.296 127.509 222.292 125.922C220.887 124.824 219.953 123.261 219.189 121.679C217.588 118.504 216.942 114.946 216.619 111.436C216.292 105.962 216.537 100.448 217.405 95.0332C218.088 91.1506 218.916 87.2514 220.505 83.6233C221.382 81.5512 222.493 79.5592 223.926 77.817Z" fill="white"></path>
  <path d="M287.368 75.3055C289.717 75.0721 292.152 75.1688 294.387 75.9939C296.597 76.7718 298.546 78.3961 299.541 80.539C300.133 81.8002 300.529 83.1628 300.605 84.5583C300.739 87.0855 300.548 89.7164 299.423 92.0266C298.799 93.2808 297.981 94.5184 296.747 95.2421C295.465 96.0107 293.89 96.1144 292.447 95.8598C291.355 95.6641 290.254 95.1337 289.644 94.1742C288.896 92.9955 288.684 91.5929 288.375 90.2609C288.262 89.8743 288.184 89.3887 287.769 89.2142C286.942 88.8583 286.008 89.0869 285.185 89.3298C283.073 90.0558 281.014 91.1732 279.586 92.9295C279.041 93.5943 278.708 94.5184 278.973 95.3671C279.232 95.9588 279.772 96.3548 280.255 96.758C282.026 98.1347 283.985 99.2474 285.987 100.249C287.783 101.164 289.622 102.013 291.285 103.163C293.623 104.705 295.762 106.685 297.049 109.205C297.82 110.693 297.973 112.411 297.827 114.057C297.53 117.055 296.274 119.971 294.286 122.235C291.233 125.544 287.147 127.796 282.834 128.998C279.545 130.059 276.063 130.377 272.623 130.276C270.487 130.21 268.37 129.759 266.373 129.01C264.572 128.319 262.895 127.173 261.82 125.551C260.971 124.264 260.222 122.862 259.988 121.32C259.604 118.908 260.179 116.204 262.011 114.49C263.192 113.46 264.711 112.781 266.279 112.661C268.052 112.555 269.638 113.496 271.062 114.439C272.977 115.716 275.342 116.035 277.596 116.037C278.958 116.025 280.439 115.801 281.495 114.865C281.835 114.601 281.906 114.094 281.7 113.727C281.33 113.076 280.696 112.638 280.102 112.213C277.725 110.608 275.016 109.62 272.47 108.342C270.034 107.128 267.677 105.638 265.875 103.573C264.678 102.22 263.763 100.542 263.603 98.717C263.291 95.7773 264.211 92.847 265.644 90.3081C269.19 84.134 274.981 79.339 281.599 76.7671C283.445 76.0292 285.393 75.5412 287.368 75.3055Z" fill="white"></path>
  <path d="M299.131 126.202C300.301 125.853 301.701 126.077 302.538 127.023C303.345 127.855 303.571 129.147 303.239 130.238C302.833 131.504 301.534 132.405 300.209 132.376C299.292 132.393 298.384 131.997 297.773 131.316C296.946 130.443 296.722 129.069 297.177 127.966C297.547 127.145 298.264 126.466 299.131 126.202ZM299.157 126.895C297.644 127.555 297.297 129.764 298.412 130.934C299.233 131.877 300.841 132.002 301.765 131.143C302.883 130.2 302.885 128.267 301.796 127.306C301.103 126.66 300.013 126.511 299.157 126.895Z" fill="black"></path>
  <path d="M298.982 127.656C299.855 127.56 300.751 127.588 301.557 127.975C301.279 128.894 301.295 129.858 301.559 130.78C301.413 130.785 301.118 130.792 300.972 130.794C300.762 130.403 300.56 130.009 300.352 129.62C300.206 129.615 299.911 129.606 299.763 129.601C299.704 130.049 299.65 130.495 299.598 130.945C299.456 130.943 299.173 130.938 299.032 130.938C298.897 129.846 298.893 128.748 298.982 127.656ZM299.723 128.137C299.744 128.481 299.767 128.826 299.796 129.175C300.175 129.019 300.564 128.875 300.958 128.745C300.864 128.611 300.673 128.345 300.579 128.21C300.289 128.187 300.003 128.161 299.723 128.137Z" fill="black"></path>
</svg>
