<?xml version="1.0" encoding="UTF-8" standalone="no"?>
<svg
   id="logo"
   width="336.13"
   height="133.33"
   viewBox="0 0 336.13 133.33"
   version="1.1"
   sodipodi:docname="1.svg"
   inkscape:version="1.4 (e7c3feb1, 2024-10-09)"
   xmlns:inkscape="http://www.inkscape.org/namespaces/inkscape"
   xmlns:sodipodi="http://sodipodi.sourceforge.net/DTD/sodipodi-0.dtd"
   xmlns="http://www.w3.org/2000/svg"
   xmlns:svg="http://www.w3.org/2000/svg">
  <defs
     id="defs1" />
  <sodipodi:namedview
     id="namedview1"
     pagecolor="#505050"
     bordercolor="#eeeeee"
     borderopacity="1"
     inkscape:showpageshadow="0"
     inkscape:pageopacity="0"
     inkscape:pagecheckerboard="0"
     inkscape:deskcolor="#505050"
     inkscape:zoom="0.19500487"
     inkscape:cx="166.6625"
     inkscape:cy="66.665001"
     inkscape:window-width="1104"
     inkscape:window-height="245"
     inkscape:window-x="0"
     inkscape:window-y="38"
     inkscape:window-maximized="0"
     inkscape:current-layer="logo" />
  <path
     id="corporate"
     d="m254.07,36.69h-7.81V.55h7.81v36.15Zm-231.03,0H0V.55h22.25c7.37,0,11.6,3.55,11.6,9.74,0,4.51-2.84,6.7-4.52,7.61,3.44,1.46,5.55,4.69,5.55,8.56,0,6.31-4.54,10.23-11.84,10.23ZM7.52,15.03h13.59c4.38,0,5.3-2.15,5.3-3.96,0-2.55-1.88-3.96-5.3-3.96H7.52v7.91Zm14.62,15.03c3.18,0,5.16-1.65,5.16-4.3s-2.02-4.3-5.16-4.3H7.52v8.61h14.62Zm51.99-.2h-25.25v-8.31h22.59v-6.77h-22.59v-7.42h25.25V.55h-32.96v36.14h32.96v-6.82ZM336.13,7.37V.55h-32.96v36.14h32.96v-6.82h-25.25v-8.31h22.59v-6.77h-22.59v-7.42h25.25Zm-228.31,15.27l8.61,14.05h-8.5l-7.89-13.25h-11.11v13.25h-7.81V.55h21.31c8.14,0,13,4.29,13,11.47,0,5.22-2.77,9.08-7.61,10.62Zm-.15-10.57c0-3.1-2.15-4.8-6.04-4.8h-12.7v9.55h12.7c3.84,0,6.04-1.73,6.04-4.75Zm162.48,24.62h-7.81V.55h21.31c8.14,0,13,4.29,13,11.47,0,5.22-2.77,9.08-7.61,10.62l8.61,14.05h-8.5l-7.89-13.25h-11.11v13.25Zm0-19.87h12.7c3.84,0,6.04-1.73,6.04-4.75s-2.15-4.8-6.04-4.8h-12.7v9.55Zm-90.98,13.64c-3.62,0-10.34-.91-14.63-7.03l-.19-.27-4.97,5.5.11.17c3.23,4.95,11.21,8.4,19.4,8.4,10.53,0,17.07-4.59,17.07-11.97,0-7.85-6.83-9.27-16.47-10.43-8.4-1.03-10.08-1.6-10.08-3.96,0-2.01,1.79-4.16,8-4.16,5.62,0,10.29,1.99,12.81,5.45l.18.25,4.94-5.04-.13-.18c-3.11-4.38-9.96-7.2-17.44-7.2-9.57,0-15.99,4.67-15.99,11.62,0,7.53,6.98,8.99,14.75,9.93l.18.02c9.28,1.07,11.34,1.36,11.34,4.48,0,2.63-3.3,4.4-8.87,4.4ZM35.81,75.28v-21.01h0s-7.81,0-7.81,0v14.19H7.81v-14.19H0v36.15h7.81v-15.13h20.19v15.13h7.81v-15.13Zm35.32,6.85h-18.62l-3.92,8.29h-8.42l17.41-36.14h8.55l17.41,36.14h-8.52l-3.87-8.29Zm-3.18-6.72l-6.13-13.07-6.17,13.07h12.3Zm120.11-21.14l17.41,36.14h-8.52l-3.87-8.29h-18.62l-3.92,8.29h-8.42l17.41-36.14h8.55Zm1.83,21.14l-6.13-13.07-6.17,13.07h12.3Zm101.98,15.01l-3.87-8.29h-18.62l-3.92,8.29h-8.42l17.41-36.14h8.55l17.41,36.14h-8.52Zm-7.06-15.01l-6.13-13.07-6.17,13.07h12.3Zm-205.42-14.32h14.58v29.32h7.86v-29.32h14.58v-6.82h-37.02v6.82Zm49.92-24.4h.43v-11.04l5.3-4.67,13.87,15.71h10.27l-18.42-20.78L158.23.55h-10.97l-17.5,15.88V.55h-7.81v36.14h7.38Zm28.43,38.6v-21.01h0s-7.81,0-7.81,0v14.19h-20.19v-14.19h-7.81v36.15h7.81v-15.13h20.19v15.13h7.81v-15.13Zm52.26-38.6v-15.13h20.18v15.13h7.81V.55h0s-7.81,0-7.81,0v14.19h-20.18V.54h-7.81v36.15h7.81Zm50.3,17.58l-11.89,36.14h-8.36l-7.98-26.6-8.07,26.6h-8.32l-.06-.18-11.83-35.97h8.19l8.28,25.9,7.89-25.9h7.97l7.84,25.9,8.28-25.9h8.04Zm-39.9,26.21h-.02s.01.04.01.04v-.04Zm106.89-26.21h-.52l-11.35,13.81-11.35-13.81h-9.55l16.93,20.58v15.56h7.81v-15.56l16.88-20.58h-8.84ZM13.31,120.87H3.48v-8.74H0v20.77h3.48v-8.77h9.84v8.77h3.46v-20.77h-3.46v8.74Zm35.45-4.01c.79,1.62,1.19,3.51,1.19,5.65s-.4,4.03-1.19,5.65c-.79,1.63-1.93,2.89-3.42,3.8-1.49.91-3.27,1.36-5.34,1.36s-3.86-.45-5.34-1.36c-1.48-.91-2.62-2.17-3.41-3.8-.79-1.62-1.19-3.51-1.19-5.65s.4-4.03,1.19-5.65c.79-1.62,1.93-2.89,3.41-3.8,1.48-.91,3.26-1.36,5.34-1.36s3.86.45,5.34,1.36c1.49.91,2.62,2.18,3.42,3.8Zm-2.49,5.65c0-1.52-.23-2.84-.7-3.96-.47-1.12-1.16-1.99-2.09-2.62-.93-.62-2.09-.95-3.48-.97-1.39,0-2.55.3-3.48.92-.92.63-1.62,1.5-2.08,2.64-.47,1.13-.7,2.46-.7,3.98s.23,2.84.69,3.96,1.16,1.99,2.08,2.62c.93.63,2.09.95,3.48.97,1.39,0,2.55-.3,3.48-.92.93-.62,1.62-1.5,2.09-2.64.47-1.13.7-2.46.7-3.98Zm27.28,4.33l-7.18-14.71h-3.13v20.77h3.26v-13.31l6.36,13.31h1.38l6.37-13.31v13.31h3.24v-20.77h-3.13l-7.18,14.71Zm24.76,6.06h13.41v-3.26h-9.94v-5.87h8.21v-3.26h-8.21v-5.12h9.94v-3.26h-13.41v20.77Zm40.91-10.24c-.59-.41-1.2-.74-1.83-.97-.63-.23-1.21-.41-1.72-.55l-3.72-1.04c-.47-.12-.94-.28-1.39-.47-.46-.19-.84-.44-1.15-.76-.31-.32-.46-.74-.46-1.25,0-.54.18-1.01.54-1.41.36-.4.84-.71,1.43-.93s1.23-.32,1.93-.31c.71.02,1.38.16,2.01.43.63.27,1.16.66,1.6,1.18s.73,1.14.89,1.87l3.74-.65c-.31-1.28-.84-2.37-1.59-3.27-.75-.9-1.68-1.59-2.8-2.07-1.12-.48-2.38-.72-3.81-.73-1.4,0-2.68.21-3.83.66-1.15.45-2.06,1.13-2.74,2.04-.68.91-1.02,2.03-1.02,3.37,0,.91.15,1.68.45,2.3.3.62.69,1.13,1.17,1.53.48.4.98.71,1.51.94.53.23,1.03.41,1.49.54l5.36,1.59c.38.12.72.25,1.02.41.29.16.53.33.72.53.19.19.33.41.43.66.1.25.14.51.14.8,0,.64-.2,1.19-.61,1.63-.41.44-.94.78-1.59,1.01-.65.23-1.35.35-2.09.35-1.25,0-2.35-.34-3.31-1.01-.96-.67-1.59-1.62-1.9-2.86l-3.61.55c.21,1.36.71,2.53,1.49,3.51.78.99,1.78,1.74,3,2.27,1.22.53,2.58.79,4.1.79,1.07,0,2.09-.13,3.06-.4.98-.27,1.84-.67,2.6-1.21.76-.54,1.36-1.21,1.81-2.03.45-.81.67-1.76.67-2.83s-.19-1.89-.57-2.57c-.38-.67-.86-1.22-1.45-1.63Zm15.56,10.24h13.41v-3.26h-9.94v-5.87h8.21v-3.26h-8.21v-5.12h9.94v-3.26h-13.41v20.77Zm39.31-7.87l3.84,7.87h-3.94l-3.52-7.25h-4.94v7.25h-3.48v-20.77h8.58c.2,0,.46,0,.78.02.32.01.61.05.88.09,1.2.18,2.19.58,2.98,1.2.78.62,1.37,1.39,1.75,2.33.38.94.57,1.98.57,3.12,0,1.69-.43,3.15-1.28,4.36-.55.78-1.29,1.37-2.22,1.77Zm-8.55-2.63h4.96c.19,0,.41,0,.65-.03.24-.02.46-.06.66-.12.58-.14,1.03-.4,1.36-.76.33-.37.57-.78.71-1.24.14-.46.21-.91.21-1.36s-.07-.9-.21-1.36-.37-.88-.71-1.25c-.33-.37-.79-.62-1.36-.76-.2-.06-.42-.09-.66-.11-.24-.01-.46-.02-.65-.02h-4.96v7.01Zm33.15,7.12l-5.48-17.39h-3.58l6.55,20.77h5.09l6.55-20.77h-3.58l-5.55,17.39Zm21.99,3.37h3.48v-20.77h-3.48v20.77Zm23.51-16.99c.93-.62,2.09-.94,3.48-.94,1.55,0,2.81.38,3.78,1.15s1.66,1.82,2.06,3.18l3.5-.97c-.64-2.03-1.76-3.64-3.36-4.84s-3.59-1.8-5.98-1.8c-2.08,0-3.86.45-5.34,1.36-1.48.91-2.62,2.18-3.41,3.8-.79,1.62-1.19,3.51-1.19,5.65s.4,4.03,1.19,5.65c.79,1.63,1.93,2.89,3.41,3.8,1.48.91,3.26,1.36,5.34,1.36,2.39,0,4.39-.6,5.98-1.8,1.6-1.2,2.72-2.81,3.36-4.84l-3.5-.97c-.4,1.35-1.09,2.4-2.06,3.17-.97.77-2.23,1.15-3.78,1.15-1.39,0-2.56-.31-3.49-.94-.93-.62-1.63-1.5-2.1-2.63-.47-1.13-.7-2.45-.7-3.97,0-1.52.25-2.84.71-3.97.47-1.13,1.16-2.01,2.09-2.63Zm26.41,16.99h13.41v-3.26h-9.94v-5.87h8.21v-3.26h-8.21v-5.12h9.94v-3.26h-13.41v20.77Zm40.91-10.24c-.59-.41-1.2-.74-1.83-.97-.63-.23-1.21-.41-1.72-.55l-3.72-1.04c-.47-.12-.94-.28-1.39-.47-.46-.19-.84-.44-1.15-.76-.31-.32-.46-.74-.46-1.25,0-.54.18-1.01.54-1.41.36-.4.84-.71,1.43-.93s1.23-.32,1.93-.31c.71.02,1.38.16,2.01.43.63.27,1.16.66,1.6,1.18s.73,1.14.89,1.87l3.74-.65c-.31-1.28-.84-2.37-1.59-3.27-.75-.9-1.68-1.59-2.8-2.07-1.12-.48-2.38-.72-3.81-.73-1.4,0-2.68.21-3.83.66-1.15.45-2.06,1.13-2.74,2.04-.68.91-1.02,2.03-1.02,3.37,0,.91.15,1.68.45,2.3.3.62.69,1.13,1.17,1.53.48.4.98.71,1.51.94.53.23,1.03.41,1.49.54l5.36,1.59c.38.12.72.25,1.02.41.29.16.53.33.72.53.19.19.33.41.43.66.1.25.14.51.14.8,0,.64-.2,1.19-.61,1.63-.41.44-.94.78-1.59,1.01-.65.23-1.35.35-2.09.35-1.25,0-2.35-.34-3.31-1.01-.96-.67-1.59-1.62-1.9-2.86l-3.61.55c.21,1.36.71,2.53,1.49,3.51.78.99,1.78,1.74,3,2.27,1.22.53,2.58.79,4.1.79,1.07,0,2.09-.13,3.06-.4.98-.27,1.84-.67,2.6-1.21.76-.54,1.36-1.21,1.81-2.03.45-.81.67-1.76.67-2.83s-.19-1.89-.57-2.57c-.38-.67-.86-1.22-1.45-1.63Z"
     style="fill:#ffffff" />
</svg>
