<?xml version="1.0" encoding="UTF-8" standalone="no"?>
<!-- Created with Inkscape (http://www.inkscape.org/) -->

<svg
   width="98.9375"
   height="24.96875"
   viewBox="0 0 98.9375 24.968749"
   id="svg4502"
   version="1.1"
   sodipodi:docname="2.svg"
   inkscape:version="1.4 (e7c3feb1, 2024-10-09)"
   xmlns:inkscape="http://www.inkscape.org/namespaces/inkscape"
   xmlns:sodipodi="http://sodipodi.sourceforge.net/DTD/sodipodi-0.dtd"
   xmlns="http://www.w3.org/2000/svg"
   xmlns:svg="http://www.w3.org/2000/svg"
   xmlns:rdf="http://www.w3.org/1999/02/22-rdf-syntax-ns#"
   xmlns:cc="http://creativecommons.org/ns#"
   xmlns:dc="http://purl.org/dc/elements/1.1/">
  <sodipodi:namedview
     id="namedview1"
     pagecolor="#505050"
     bordercolor="#eeeeee"
     borderopacity="1"
     inkscape:showpageshadow="0"
     inkscape:pageopacity="0"
     inkscape:pagecheckerboard="0"
     inkscape:deskcolor="#505050"
     inkscape:zoom="1.0413016"
     inkscape:cx="49.457332"
     inkscape:cy="12.484375"
     inkscape:window-width="1104"
     inkscape:window-height="245"
     inkscape:window-x="0"
     inkscape:window-y="38"
     inkscape:window-maximized="0"
     inkscape:current-layer="svg4502" />
  <defs
     id="defs4504" />
  <metadata
     id="metadata4507">
    <rdf:RDF>
      <cc:Work
         rdf:about="">
        <dc:format>image/svg+xml</dc:format>
        <dc:type
           rdf:resource="http://purl.org/dc/dcmitype/StillImage" />
        <dc:title />
      </cc:Work>
    </rdf:RDF>
  </metadata>
  <g
     id="layer1"
     transform="translate(-622.20982,-799.62783)"
     style="fill:#ffffff">
    <g
       id="g4379"
       transform="matrix(1.25,0,0,-1.25,667.21232,811.71408)"
       style="fill:#ffffff">
      <path
         d="M 0,0 C 2.488,0.828 2.939,2.916 2.934,4.618 2.929,7.22 1.094,9.467 -4.337,9.467 L -14.476,9.469 V -10.065 H -4.365 C 1.1,-10.065 3.11,-7.26 3.11,-4.45 3.11,-1.047 0,0 0,0 m -9.664,5.219 h 6.826 l 0.024,-0.005 c 0.77,-0.136 1.331,-0.791 1.331,-1.559 0,-0.787 -0.601,-1.528 -1.395,-1.636 L -9.661,2.008 Z m 6.497,-10.731 h -6.497 v 3.269 h 6.656 l 0.015,-0.002 c 0.828,-0.094 1.456,-0.783 1.456,-1.6 0,-0.893 -0.743,-1.655 -1.63,-1.667"
         style="fill:#ffffff;fill-opacity:1;fill-rule:nonzero;stroke:none"
         id="path4381" />
    </g>
    <g
       id="g4383"
       transform="matrix(1.25,0,0,-1.25,699.47732,799.88283)"
       style="fill:#ffffff">
      <path
         d="m 0,0 h 17.132 l -0.01,-4.262 H 4.761 l 0.012,-3.149 h 11.144 v -4.285 H 4.773 v -3.407 h 12.363 l -0.003,-4.468 H 0"
         style="fill:#ffffff;fill-opacity:1;fill-rule:nonzero;stroke:none"
         id="path4385" />
    </g>
    <g
       id="g4387"
       transform="matrix(1.25,0,0,-1.25,687.02107,799.91283)"
       style="fill:#ffffff">
      <path
         d="m 0,0 h -10.36 v -19.541 h 4.757 v 7.907 l 5.24,0.005 c 1.5,-0.023 2.667,-1.251 2.667,-2.767 v -5.127 l 4.656,0.002 -0.008,6.305 c 0,2.922 -2.823,3.786 -2.823,3.786 0,0 2.886,0.862 2.886,4.316 C 7.015,-0.887 3.384,0 0,0 M 2.597,-6.062 C 2.511,-6.705 1.869,-7.402 1.067,-7.402 L -5.62,-7.404 v 3.128 h 6.689 c 0.8,0 1.426,-0.587 1.528,-1.36"
         style="fill:#ffffff;fill-opacity:1;fill-rule:nonzero;stroke:none"
         id="path4389" />
    </g>
    <g
       id="g4391"
       transform="matrix(1.25,0,0,-1.25,645.26232,818.43658)"
       style="fill:#ffffff">
      <path
         d="m 0,0 c -0.067,-0.001 -6.503,-0.125 -8.725,0.091 -3.576,0.35 -4.844,3.001 -4.844,5.163 0,2.699 1.839,4.683 4.687,5.055 1.356,0.178 8.764,0.094 8.843,0.094 L 0.116,10.4 0.132,14.844 h -0.157 l -8.386,-0.016 c -0.934,-0.057 -2.482,-0.151 -4.068,-0.799 -1.521,-0.698 -2.847,-1.77 -3.836,-3.103 -1.26,-1.696 -1.927,-3.711 -1.927,-5.823 0,-0.666 0.053,-1.325 0.16,-1.958 0.603,-2.962 2.546,-5.415 5.331,-6.733 0.94,-0.414 2.391,-0.909 5.315,-1.074 L -5.86,-4.695 -0.015,-4.7 H 0.14 l 0.016,4.702"
         style="fill:#ffffff;fill-opacity:1;fill-rule:nonzero;stroke:none"
         id="path4393" />
    </g>
  </g>
</svg>
