<?xml version="1.0" encoding="UTF-8" standalone="no"?>
<!-- Created with Inkscape (http://www.inkscape.org/) -->

<svg
   version="1.1"
   id="svg1"
   width="364"
   height="104"
   viewBox="0 0 364 104"
   sodipodi:docname="3.svg"
   inkscape:version="1.4 (e7c3feb1, 2024-10-09)"
   xmlns:inkscape="http://www.inkscape.org/namespaces/inkscape"
   xmlns:sodipodi="http://sodipodi.sourceforge.net/DTD/sodipodi-0.dtd"
   xmlns="http://www.w3.org/2000/svg"
   xmlns:svg="http://www.w3.org/2000/svg">
  <sodipodi:namedview
     id="namedview1"
     pagecolor="#505050"
     bordercolor="#eeeeee"
     borderopacity="1"
     inkscape:showpageshadow="0"
     inkscape:pageopacity="0"
     inkscape:pagecheckerboard="0"
     inkscape:deskcolor="#505050"
     inkscape:zoom="0.25"
     inkscape:cx="182"
     inkscape:cy="52"
     inkscape:window-width="1104"
     inkscape:window-height="245"
     inkscape:window-x="0"
     inkscape:window-y="38"
     inkscape:window-maximized="0"
     inkscape:current-layer="svg1" />
  <defs
     id="defs1" />
  <g
     id="g1"
     style="fill:#ffffff">
    <path
       id="path1"
       d="M 615.555,4.14844 V 165.695 h 75.523 c 15.188,0 26.731,-1.465 34.625,-4.363 7.891,-2.894 14.199,-8.008 18.957,-15.344 4.719,-7.375 7.063,-15.5 7.063,-24.375 0,-11.472 -3.887,-21.101 -11.743,-28.9646 -7.816,-7.8593 -19.91,-12.8632 -36.253,-15.0039 5.992,-2.707 10.511,-5.3828 13.605,-8.0507 6.582,-5.7188 12.813,-12.9024 18.723,-21.4766 L 765.684,4.14844 H 737.32 L 714.793,37.7734 c -6.582,9.668 -12.02,17.1133 -16.301,22.2305 -4.242,5.1524 -8.054,8.7617 -11.422,10.793 -3.375,2.0703 -6.785,3.5 -10.273,4.3281 -2.582,0.4844 -6.746,0.75 -12.574,0.75 H 638.082 V 4.14844 Z m 22.527,90.23436 h 48.469 c 10.277,0 18.363,1.0156 24.16,3.0469 5.828,2.0273 10.23,5.2613 13.246,9.7033 3.012,4.437 4.52,9.25 4.52,14.48 0,7.637 -2.895,13.918 -8.766,18.844 -5.828,4.93 -15.07,7.371 -27.723,7.371 h -53.906 z m 164,-90.23436 V 165.695 H 925.238 V 146.629 H 824.609 V 97.1641 h 94.243 V 78.207 H 824.609 V 23.2148 H 929.207 V 4.14844 Z m 154.082,0 65.446,161.54656 h 24.27 L 1115.61,4.14844 h -25.7 L 1070.04,53.082 H 998.805 L 980.121,4.14844 Z m 49.146,66.34766 h 57.79 l -17.81,44.7229 c -5.4,13.578 -9.44,24.75 -12.06,33.515 -2.18,-10.382 -5.24,-20.652 -9.2,-30.882 z M 1147.21,4.14844 V 165.695 h 22.57 V 23.2148 h 83.89 V 4.14844 Z m 173.56,0 V 146.629 h -56.13 v 19.066 h 135.02 V 146.629 H 1343.3 V 4.14844 Z M 1426.18,82.832 c 0,26.82 7.58,47.809 22.77,62.969 15.19,15.156 34.79,22.754 58.82,22.754 15.71,0 29.91,-3.575 42.52,-10.684 12.62,-7.144 22.25,-17.074 28.87,-29.824 6.63,-12.715 9.93,-27.195 9.93,-43.3322 0,-16.3984 -3.46,-31.0703 -10.44,-43.9687 -6.98,-12.9414 -16.86,-22.7227 -29.63,-29.375 -12.81,-6.66016 -26.57,-9.97266 -41.37,-9.97266 -16.06,0 -30.38,3.64844 -42.99,11.02346 -12.66,7.3359 -22.21,17.3789 -28.72,30.0937 -6.5,12.6719 -9.76,26.1407 -9.76,40.3164 z m 23.25,-0.3359 c 0,-19.4844 5.51,-34.793 16.53,-46.0039 11.08,-11.207 24.92,-16.8125 41.58,-16.8125 16.97,0 30.93,5.6445 41.88,16.9648 10.95,11.3243 16.46,27.3828 16.46,48.1836 0,13.125 -2.38,24.5979 -7.06,34.4179 -4.68,9.817 -11.54,17.41 -20.54,22.828 -9.05,5.383 -19.16,8.086 -30.39,8.086 -15.98,0 -29.71,-5.187 -41.21,-15.609 -11.5,-10.379 -17.25,-27.758 -17.25,-52.0549 z M 1633.06,4.14844 V 165.695 h 75.52 c 15.19,0 26.73,-1.465 34.63,-4.363 7.89,-2.894 14.2,-8.008 18.95,-15.344 4.72,-7.375 7.07,-15.5 7.07,-24.375 0,-11.472 -3.89,-21.101 -11.75,-28.9646 -7.81,-7.8593 -19.91,-12.8632 -36.25,-15.0039 5.99,-2.707 10.51,-5.3828 13.61,-8.0507 6.58,-5.7188 12.81,-12.9024 18.72,-21.4766 l 29.63,-43.96876 h -28.37 L 1732.3,37.7734 c -6.59,9.668 -12.02,17.1133 -16.3,22.2305 -4.25,5.1524 -8.05,8.7617 -11.43,10.793 -3.37,2.0703 -6.78,3.5 -10.27,4.3281 -2.58,0.4844 -6.75,0.75 -12.57,0.75 h -26.14 V 4.14844 Z m 22.53,90.23436 h 48.47 c 10.27,0 18.36,1.0156 24.15,3.0469 5.83,2.0273 10.24,5.2613 13.25,9.7033 3.01,4.437 4.52,9.25 4.52,14.48 0,7.637 -2.89,13.918 -8.76,18.844 -5.83,4.93 -15.08,7.371 -27.73,7.371 h -53.9 z m 155.87,-38.332 21.25,1.7695 c 1,-8.0859 3.34,-14.707 7.03,-19.8945 3.69,-5.1914 9.39,-9.3672 17.13,-12.5664 7.73,-3.1953 16.46,-4.7735 26.14,-4.7735 8.61,0 16.18,1.1993 22.77,3.6094 6.58,2.4453 11.5,5.7539 14.71,9.9688 3.21,4.25 4.84,8.8359 4.84,13.8398 0,5.0781 -1.55,9.4805 -4.68,13.2774 -3.09,3.8007 -8.21,6.9609 -15.31,9.5156 -4.6,1.6914 -14.68,4.3281 -30.34,7.8984 -15.63,3.5742 -26.62,6.9219 -32.88,10.082 -8.14,4.0235 -14.21,9.0625 -18.21,15.0427 -3.97,5.981 -5.95,12.68 -5.95,20.125 0,8.125 2.42,15.762 7.3,22.832 4.87,7.11 12.02,12.489 21.37,16.172 9.41,3.653 19.8,5.492 31.26,5.492 12.65,0 23.76,-1.918 33.44,-5.793 9.64,-3.835 17.05,-9.515 22.25,-17 5.15,-7.484 7.97,-15.984 8.37,-25.464 l -21.62,-1.543 c -1.19,10.195 -5.12,17.945 -11.82,23.132 -6.7,5.227 -16.58,7.825 -29.67,7.825 -13.64,0 -23.56,-2.371 -29.82,-7.11 -6.23,-4.738 -9.36,-10.457 -9.36,-17.113 0,-5.828 2.22,-10.605 6.62,-14.332 4.36,-3.762 15.67,-7.598 33.99,-11.5078 18.33,-3.9532 30.9,-7.3711 37.72,-10.3047 9.92,-4.3633 17.26,-9.8594 21.98,-16.4766 4.72,-6.6601 7.06,-14.332 7.06,-22.9844 0,-8.6093 -2.58,-16.6992 -7.78,-24.2968 -5.19,-7.5977 -12.65,-13.5039 -22.37,-17.75004 -9.72,-4.21485 -20.66,-6.32422 -32.8,-6.32422 -15.43,0 -28.36,2.10937 -38.75,6.39844 -10.44,4.25002 -18.61,10.64062 -24.55,19.21872 -5.91,8.5391 -9.05,18.2422 -9.32,29.0352 z m 256.7,113.3982 c 9.1,0 17.96,-2.226 26.62,-6.633 8.66,-4.406 15.36,-10.718 20.2,-18.929 4.85,-8.258 7.25,-16.797 7.25,-25.746 0,-8.817 -2.4,-17.309 -7.15,-25.473 -4.74,-8.1641 -11.4,-14.4727 -20.01,-19.0196 -8.56,-4.5039 -17.51,-6.7304 -26.91,-6.7304 -9.34,0 -18.29,2.2265 -26.91,6.7304 -8.55,4.5469 -15.21,10.8555 -20,19.0196 -4.8,8.164 -7.2,16.656 -7.2,25.473 0,8.949 2.45,17.488 7.29,25.746 4.85,8.211 11.6,14.523 20.26,18.929 8.66,4.407 17.51,6.633 26.56,6.633 z m 0,-8.488 c -7.58,0 -14.96,-1.859 -22.16,-5.52 -7.19,-3.714 -12.82,-9.003 -16.87,-15.871 -4.07,-6.863 -6.07,-14.007 -6.07,-21.429 0,-7.379 1.96,-14.477 5.97,-21.2504 3.96,-6.7734 9.54,-12.0156 16.73,-15.8242 7.14,-3.7539 14.63,-5.6562 22.4,-5.6562 7.83,0 15.27,1.9023 22.46,5.6562 7.14,3.8086 12.72,9.0508 16.68,15.8242 3.97,6.7734 5.97,13.8714 5.97,21.2504 0,7.422 -2.05,14.566 -6.06,21.429 -4.07,6.868 -9.69,12.157 -16.89,15.871 -7.19,3.661 -14.57,5.52 -22.16,5.52 z M 2044.44,89.7891 V 145 h 20.01 c 6.85,0 11.79,-0.512 14.82,-1.531 3.08,-1.02 5.53,-2.832 7.34,-5.332 1.81,-2.555 2.69,-5.246 2.69,-8.121 0,-3.993 -1.52,-7.516 -4.55,-10.532 -3.03,-2.968 -7.04,-4.64 -12.04,-5.011 2.06,-0.836 3.67,-1.809 4.95,-2.926 2.34,-2.18 5.18,-5.797 8.61,-10.945 l 7.09,-10.8129 h -11.5 l -5.13,8.7226 c -4.07,6.8203 -7.34,11.1333 -9.84,12.8513 -1.71,1.254 -4.21,1.903 -7.53,1.903 h -5.53 V 89.7891 Z m 9.39,31.0859 h 11.4 c 5.48,0 9.2,0.742 11.15,2.32 2.01,1.532 2.99,3.575 2.99,6.078 0,1.668 -0.49,3.106 -1.42,4.407 -0.98,1.3 -2.3,2.226 -4.01,2.875 -1.67,0.648 -4.85,0.976 -9.4,0.976 h -10.71 v -16.656"
       style="fill:#ffffff;fill-opacity:1;fill-rule:nonzero;stroke:none"
       transform="matrix(0.13333333,0,0,-0.13333333,0,104)" />
    <path
       id="path2"
       d="m 241.926,772.402 v -78.589 h -17.238 c -31.254,0 -58.715,-6.731 -82.387,-20.192 -23.672,-13.457 -40.336,-34.848 -49.9885,-64.168 -3.2148,-14.426 -4.8242,-27.64 -4.8242,-39.66 0,-24.992 6.664,-47.828 19.9957,-68.496 13.329,-20.672 31.946,-35.813 55.844,-45.426 20.227,-6.25 39.07,-9.375 56.535,-9.375 h 19.996 v -79.312 c -5.058,-0.485 -9.882,-0.844 -14.476,-1.086 -4.598,-0.239 -9.887,-0.36 -15.863,-0.36 -54.692,0 -102.957,19.231 -144.7817,57.684 C 22.9102,461.875 1.99609,508.984 1.99609,564.746 v 17.305 c 0,43.742 14.48051,83.039 43.32421,117.89 28.9531,34.848 64.8047,57.563 107.8947,68.137 10.574,0.961 21.723,1.926 33.211,2.887 11.605,0.961 21.945,1.437 31.254,1.437 z m 97.211,-1.437 h 82.738 c 29.875,0 56.418,-11.899 79.629,-35.692 23.215,-23.796 34.82,-50.835 34.82,-81.121 0,-14.418 -2.761,-28.597 -8.277,-42.539 -6.891,-13.941 -15.625,-25.718 -26.195,-35.328 -10.571,-9.617 -23.676,-18.269 -39.297,-25.957 l 99.968,-183.144 h -94.339 l -89.746,175.929 -2.754,18.75 c 0,17.785 9.652,31.004 28.953,39.657 19.304,8.652 32.519,15.261 39.644,19.828 7.125,4.566 10.688,13.82 10.688,27.761 0,9.61 -2.418,18.024 -7.242,25.235 -4.825,7.211 -11.832,14.179 -21.028,20.91 H 372.234 V 367.184 H 292.258 V 719.77 c 2.297,12.976 7.695,24.156 16.199,33.527 8.504,9.371 18.731,15.262 30.68,17.668 z m 242,2.883 h 89.054 l 56.653,-140.723 61.82,140.723 h 85.492 L 763.844,534.465 V 367.184 h -77.219 v 171.605 c -14.25,35.57 -27.922,67.777 -41.023,96.617 -13.102,28.844 -34.586,74.989 -64.465,138.442 z m 399.195,0 h 137.208 v -80.035 l -116.52,-1.442 v -71.383 h 110.31 v -78.593 l -110.31,-2.165 v -91.57 l 116.52,-0.722 v -80.754 l -144.79,0.718 c -15.629,1.922 -28.266,9.016 -37.918,21.274 -9.652,12.254 -14.48,26.797 -14.48,43.621 v 270.387 c 0,29.324 14.246,51.675 42.746,67.058 5.515,0.961 11.257,2.16 17.234,3.606 z M 1174.76,536.625 h 131.69 v -78.594 h -131.69 z m 199.25,234.34 h 80.67 V 444.332 h 114.45 v -77.148 h -144.79 c -11.95,0 -21.83,4.082 -29.64,12.257 -7.82,8.172 -14.72,19.227 -20.69,33.168 z m 305.43,2.883 h 137.2 v -80.035 l -116.52,-1.442 v -71.383 h 110.31 v -78.593 l -110.31,-2.165 v -91.57 l 116.52,-0.722 v -80.754 l -144.78,0.718 c -15.63,1.922 -28.27,9.016 -37.92,21.274 -9.65,12.254 -14.48,26.797 -14.48,43.621 v 270.387 c 0,29.324 14.24,51.675 42.74,67.058 5.52,0.961 11.26,2.16 17.24,3.606 z m 197.87,-2.883 h 82.74 V 365.738 h -82.74 z m 157.2,1.437 h 80.67 V 367.184 h -80.67 z m 193.04,-2.16 h 97.91 l -124.8,-194.679 131.69,-208.379 h -100.66 l -101.35,165.234 c -3.21,6.25 -6.2,12.5 -8.96,18.867 -2.76,6.25 -4.14,13.942 -4.14,23.074 l 2.41,17.305 z m 214.43,3.606 h 137.2 v -80.035 l -116.52,-1.442 v -71.383 h 110.31 v -78.593 l -110.31,-2.165 v -91.57 l 116.52,-0.722 v -80.754 l -144.79,0.718 c -15.62,1.922 -28.26,9.016 -37.92,21.274 -9.65,12.254 -14.48,26.797 -14.48,43.621 v 270.387 c 0,29.324 14.25,51.675 42.75,67.058 5.52,0.961 11.26,2.16 17.24,3.606 z m 252.34,-314.371 c 10.57,-1.926 18.96,-7.696 25.16,-17.067 6.21,-9.496 9.31,-20.308 9.31,-32.445 0,-3.848 -0.34,-7.692 -1.04,-11.539 -0.69,-3.965 -1.95,-8.774 -3.79,-14.66 l -61.36,-88.688 h -24.13 l 28.27,67.055 c -18.85,12.5 -28.27,28.601 -28.27,48.312 0,9.133 3.1,18.145 9.31,27.035 6.2,8.899 12.99,14.786 20.34,17.668 7.35,2.883 13.09,4.329 17.23,4.329 h 8.97"
       style="fill:#ffffff;fill-opacity:1;fill-rule:nonzero;stroke:none"
       transform="matrix(0.13333333,0,0,-0.13333333,0,104)" />
  </g>
</svg>
