<?xml version="1.0" encoding="UTF-8" standalone="no"?>
<svg
   version="1.1"
   id="Layer_1"
   x="0px"
   y="0px"
   width="100%"
   viewBox="0 0 1373 399"
   enable-background="new 0 0 1373 399"
   xml:space="preserve"
   sodipodi:docname="file.svg"
   inkscape:version="1.4 (e7c3feb1, 2024-10-09)"
   xmlns:inkscape="http://www.inkscape.org/namespaces/inkscape"
   xmlns:sodipodi="http://sodipodi.sourceforge.net/DTD/sodipodi-0.dtd"
   xmlns="http://www.w3.org/2000/svg"
   xmlns:svg="http://www.w3.org/2000/svg"><defs
   id="defs34" /><sodipodi:namedview
   id="namedview34"
   pagecolor="#505050"
   bordercolor="#eeeeee"
   borderopacity="1"
   inkscape:showpageshadow="0"
   inkscape:pageopacity="0"
   inkscape:pagecheckerboard="0"
   inkscape:deskcolor="#505050"
   inkscape:zoom="0.45731768"
   inkscape:cx="718.31904"
   inkscape:cy="189.14641"
   inkscape:window-width="1728"
   inkscape:window-height="1080"
   inkscape:window-x="0"
   inkscape:window-y="37"
   inkscape:window-maximized="0"
   inkscape:current-layer="Layer_1" />

<path
   fill="#FFFFFF"
   opacity="1.000000"
   stroke="none"
   d=" M169.007706,216.000000   C164.206238,216.000000 159.902863,216.000000 155.241180,216.000000   C155.150879,217.924179 155.010574,219.531509 155.009705,221.138916   C154.995895,246.465790 154.677841,271.798889 155.168167,297.116272   C155.349045,306.455658 156.079437,316.112701 163.781128,323.391571   C168.862106,328.193665 174.957016,329.085022 181.706604,329.086853   C181.706604,331.042572 181.706604,332.770844 181.706604,334.751343   C149.187531,334.751343 116.755478,334.751343 83.930702,334.751343   C84.156097,332.891998 84.366714,331.154572 84.487816,330.155609   C89.049377,328.732574 93.294075,327.395660 97.546967,326.085266   C101.534889,324.856567 104.344521,322.113770 105.767754,318.415192   C108.425720,311.507904 111.542839,304.708771 110.605026,296.850311   C110.258034,293.942657 111.931473,290.847198 111.935074,287.836517   C112.018982,217.687851 111.999977,147.539062 111.999977,77.390297   C111.999977,75.764175 111.999977,74.138054 111.999977,71.977081   C96.623741,72.094353 81.571953,71.632256 67.037910,75.605026   C50.954895,80.001183 39.878269,91.196053 31.039301,104.830902   C28.649235,108.517776 26.085224,112.126549 24.077888,116.017181   C22.050974,119.945755 19.201447,120.732574 15.075595,119.601463   C17.097496,100.436996 19.110312,81.358665 21.193914,61.609379   C95.083954,61.609379 169.722900,61.609379 244.971695,61.609379   C246.960724,80.675842 248.988678,100.115562 251.004990,119.443695   C246.291290,121.035057 243.572174,119.468414 241.238144,115.746323   C236.314560,107.894615 231.523453,99.863091 225.684494,92.717117   C221.970764,88.172081 216.839172,84.450203 211.696625,81.478333   C201.229324,75.429298 189.791382,72.639748 177.533783,72.889526   C170.300247,73.036926 163.044327,72.085823 155.382904,71.602516   C155.382904,115.553848 155.382904,158.935394 155.382904,202.991257   C167.172211,202.991257 179.114136,203.376282 191.011246,202.813828   C196.236755,202.566788 201.512970,200.788193 206.517960,199.007416   C217.981415,194.928711 222.734406,185.122528 226.098816,174.491760   C227.491989,170.089630 229.554901,167.647339 234.724579,169.414398   C234.724579,197.029617 234.724579,224.772202 234.724579,252.500000   C229.838699,254.319977 227.556580,252.375107 226.199127,247.716064   C224.981323,243.536209 222.759949,239.660217 221.215408,235.561935   C216.775406,223.780930 206.710938,219.247696 195.727753,217.247269   C187.194443,215.693069 178.261261,216.334473 169.007706,216.000000  z"
   id="path2" />
<path
   fill="#FFFFFF"
   opacity="1.000000"
   stroke="none"
   d=" M1345.893311,235.000000   C1327.434204,235.000000 1309.463257,235.000000 1291.492432,235.000000   C1291.169922,234.612976 1290.847412,234.225952 1290.524902,233.838913   C1291.446899,232.895035 1292.264526,231.273148 1293.307251,231.112457   C1303.391479,229.558441 1307.632568,225.174881 1307.958252,215.076004   C1308.172974,208.417480 1308.994019,201.547195 1307.711426,195.138412   C1306.491943,189.045395 1308.424927,182.926651 1306.781006,177.293381   C1304.953979,171.032318 1307.655151,164.654953 1305.742920,158.965622   C1303.614258,152.632751 1306.556519,146.443741 1304.844238,140.575012   C1302.987061,134.209473 1305.387207,127.728897 1303.768677,121.741150   C1302.120239,115.643211 1303.844116,109.735008 1302.932617,103.839722   C1302.473022,100.867256 1301.312256,98.003174 1300.040039,93.610558   C1282.919678,141.580963 1266.277954,188.210693 1249.633301,234.848358   C1246.763550,234.848358 1244.128418,234.848358 1241.607910,234.848358   C1224.572632,188.102570 1207.599487,141.527252 1190.626343,94.951920   C1190.275146,94.984856 1189.923950,95.017799 1189.572754,95.050735   C1189.050415,97.802521 1188.227661,100.536377 1188.062134,103.309456   C1187.569580,111.564613 1187.348022,119.835716 1186.997314,128.099594   C1186.338013,143.629272 1185.627930,159.156876 1185.006104,174.688019   C1184.608643,184.616318 1183.788574,194.570419 1184.171997,204.473724   C1184.479370,212.412033 1186.119873,220.485718 1192.136841,226.429871   C1194.296143,228.562943 1197.660278,229.451324 1200.405151,231.028503   C1201.556519,231.690170 1202.527710,232.665451 1203.580933,233.498138   C1203.318970,233.914062 1203.057129,234.329987 1202.795288,234.745911   C1187.022583,234.745911 1171.249878,234.745911 1154.699951,234.745911   C1155.293091,233.304520 1155.600952,231.298981 1156.241821,231.186279   C1166.823486,229.325623 1168.839233,220.459335 1170.814209,212.421524   C1173.827759,200.157120 1175.381958,187.705704 1174.724487,174.840149   C1174.208130,164.732956 1176.317017,154.510635 1176.958374,144.320511   C1177.794800,131.033020 1178.314819,117.725838 1179.009155,104.429115   C1179.286865,99.110275 1179.431274,93.768349 1180.068726,88.489136   C1180.658936,83.601028 1178.679810,79.507843 1177.092163,75.182617   C1175.165161,69.932999 1171.257690,67.251106 1166.121338,66.096771   C1162.949463,65.383911 1161.496704,63.779961 1162.302002,60.012352   C1177.169678,60.012352 1192.119873,59.960197 1207.067505,60.133320   C1208.032227,60.144489 1209.444336,61.721130 1209.861816,62.858246   C1218.252197,85.718544 1226.547607,108.613876 1234.818970,131.517715   C1241.324341,149.531525 1247.767944,167.567581 1254.264038,185.584702   C1254.421265,186.020920 1254.874268,186.350449 1255.668457,187.306854   C1259.717896,175.886795 1263.559570,164.961044 1267.464233,154.057846   C1278.301392,123.795311 1289.131958,93.530243 1300.121582,63.323074   C1300.627197,61.932972 1302.637207,60.166977 1303.973022,60.144428   C1317.784546,59.911312 1331.601562,60.001152 1345.600952,60.001152   C1346.395020,63.131031 1345.947021,64.644180 1342.392212,65.093620   C1334.039551,66.149643 1328.923706,71.605476 1329.093262,79.979279   C1329.465332,98.347412 1330.248291,116.709366 1331.045654,135.065948   C1331.517822,145.937714 1332.235718,156.801758 1333.023193,167.656204   C1334.272339,184.875137 1335.298218,202.123993 1337.171875,219.277924   C1338.058228,227.392563 1342.099976,230.056030 1350.404053,231.097443   C1351.533203,231.239029 1352.502197,232.655853 1353.545410,233.482254   C1353.284058,233.988159 1353.022705,234.494080 1352.761475,235.000000   C1350.634888,235.000000 1348.508179,235.000000 1345.893311,235.000000  z"
   id="path3" />
<path
   fill="#FFFFFF"
   opacity="1.000000"
   stroke="none"
   d=" M1009.143799,235.000000   C1007.012146,235.000000 1005.360046,235.000000 1003.750549,235.000000   C1003.098328,231.211395 1003.098328,231.211365 1006.038452,231.001526   C1013.201050,230.490326 1017.704773,226.964462 1018.920044,220.079971   C1019.967407,214.147064 1020.884644,208.096207 1020.910706,202.093384   C1021.083191,162.270096 1021.004395,122.445694 1020.995544,82.621658   C1020.994141,76.256447 1015.437195,66.740601 1010.930786,65.469131   C1009.685364,65.117729 1008.336243,65.096054 1007.029053,65.008438   C1003.334778,64.760834 1003.333618,64.778267 1003.220337,60.000027   C1004.864990,60.000027 1006.500854,60.000023 1008.136780,60.000023   C1028.132080,60.000023 1048.148560,59.453197 1068.114258,60.223145   C1078.614380,60.628075 1089.469971,61.994614 1099.386230,65.278763   C1120.950073,72.420464 1130.073608,88.414886 1128.851318,109.671936   C1127.871582,126.709244 1117.599976,138.102463 1103.300415,146.138092   C1099.790649,148.110397 1095.781982,149.194885 1091.253784,150.983322   C1102.135376,160.013611 1106.682861,172.025879 1112.960205,182.889389   C1119.966797,195.014816 1126.394287,207.505539 1133.989136,219.245163   C1137.038208,223.958237 1142.526978,227.091400 1146.897339,230.952850   C1147.613892,231.586014 1148.841431,232.273422 1148.833740,232.923950   C1148.825317,233.638901 1147.783325,234.698425 1146.975952,234.972641   C1145.309937,235.538528 1143.505737,235.918121 1141.749268,235.956177   C1136.253052,236.075256 1130.647583,235.317368 1125.276489,236.145493   C1114.856812,237.751984 1107.965820,232.693756 1103.443604,224.611893   C1095.169678,209.824860 1087.764526,194.551773 1079.998657,179.480530   C1076.416016,172.527756 1073.113892,165.406769 1069.096191,158.715378   C1067.806641,156.567657 1064.789062,154.662720 1062.283569,154.218964   C1058.125977,153.482559 1053.742798,154.018509 1049.000000,154.018509   C1049.000000,169.584641 1048.803833,184.705368 1049.086914,199.817108   C1049.218384,206.836853 1049.797607,213.928101 1051.065308,220.823059   C1052.213623,227.069275 1056.672729,230.454681 1063.182373,231.109268   C1064.326416,231.224335 1065.329102,232.746628 1066.397095,233.619019   C1066.108887,234.079346 1065.820679,234.539673 1065.532471,235.000000   C1046.896118,235.000000 1028.259644,235.000000 1009.143799,235.000000  M1098.945190,93.961746   C1096.370117,85.495850 1092.546143,77.889633 1084.606934,73.111656   C1077.012817,68.541344 1068.650269,67.788841 1060.036865,67.968330   C1052.207031,68.131493 1049.006714,71.142593 1049.002686,78.844322   C1048.994019,95.484047 1049.000000,112.123779 1049.000000,128.763504   C1049.000000,134.371292 1049.000000,139.979080 1049.000000,146.000000   C1055.124268,146.000000 1060.746582,146.128830 1066.361084,145.977158   C1087.827393,145.397171 1099.061890,133.156372 1099.911377,112.570290   C1100.154419,106.677750 1099.327759,100.741089 1098.945190,93.961746  z"
   id="path4" />
<path
   fill="#FFFFFF"
   opacity="1.000000"
   stroke="none"
   d=" M625.000000,202.998688   C624.999939,183.841339 625.358337,165.172409 624.775635,146.532913   C624.606812,141.131943 622.536865,135.358490 619.822815,130.624771   C618.087524,127.598053 613.796997,124.865448 610.262695,124.255005   C598.457153,122.215919 588.112549,126.967133 578.471741,133.271774   C577.536926,133.883118 577.064331,135.820847 577.060486,137.144821   C576.981079,164.464828 576.844299,191.786804 577.137451,219.103882   C577.193909,224.363373 578.126160,230.154755 585.419067,231.143448   C586.195435,231.248703 586.736633,233.089325 587.772949,234.739685   C571.382080,234.739685 555.955261,234.739685 539.739624,234.739685   C540.307068,233.319611 540.685486,231.248657 541.217163,231.208542   C551.035767,230.467712 550.671814,222.658691 550.839722,216.323578   C551.303040,198.844269 551.000000,181.344604 551.000000,163.852997   C551.000000,135.699829 551.001282,107.546677 550.999207,79.393517   C550.998657,71.099464 549.268372,63.781853 540.766296,59.830185   C539.669495,59.320389 539.262512,57.326275 538.131104,55.291634   C551.370361,52.501251 563.728821,49.896511 576.782959,47.145138   C576.782959,73.509384 576.782959,98.877106 576.782959,124.323921   C584.240967,119.810829 591.032959,115.052299 598.380127,111.415161   C608.057861,106.624298 618.529785,104.223534 629.238708,107.240097   C640.711609,110.471870 649.284058,120.402153 649.774231,133.247406   C650.838379,161.134796 650.562439,189.071304 651.081421,216.983124   C651.195251,223.103928 651.126343,229.908264 659.790955,231.193893   C660.393433,231.283295 660.707031,233.319611 661.308167,234.837311   C645.545898,234.837311 630.587891,234.837311 614.841248,234.837311   C615.295776,233.420120 615.531311,231.303146 616.066162,231.224594   C624.726807,229.952789 624.149658,222.874481 624.890015,216.977875   C625.445923,212.549881 624.999939,207.996109 625.000000,202.998688  z"
   id="path5" />
<path
   fill="#FFFFFF"
   opacity="1.000000"
   stroke="none"
   d=" M810.000000,93.162842   C809.321899,86.835190 809.144592,80.873093 807.825439,75.175392   C806.495117,69.429901 802.922729,65.413696 796.306458,64.828796   C794.376831,64.658211 790.744995,64.540733 792.356934,60.236504   C830.965820,60.236504 869.730408,60.236504 909.043579,60.236504   C910.131226,73.049072 911.210022,85.757713 912.276245,98.318405   C908.553284,99.989471 907.542358,97.818192 906.134583,95.616524   C902.193909,89.453682 898.423157,83.100853 893.774902,77.494995   C889.234985,72.019653 882.452393,69.452843 875.549622,69.156639   C862.985291,68.617485 850.381287,69.003532 837.394348,69.003532   C837.394348,93.535477 837.394348,118.922150 837.394348,145.548950   C848.777527,144.931396 860.363647,145.066162 871.698425,143.444489   C880.640381,142.165146 885.596008,135.290161 888.083069,126.676826   C888.554016,125.045799 890.294983,123.781494 891.450012,122.347984   C891.896423,122.646278 892.342896,122.944580 892.789307,123.242874   C892.789307,141.027405 892.789307,158.811951 892.789307,176.604889   C889.206360,177.879135 888.708130,175.597946 887.900024,173.045120   C884.492676,162.282059 878.470642,154.387726 865.985657,153.918427   C859.723328,153.683014 853.468018,153.260468 847.205811,153.021027   C844.054932,152.900558 840.895691,153.000000 837.295959,153.000000   C837.189880,154.593124 837.014160,156.018555 837.012451,157.444199   C836.992981,173.774811 836.862549,190.107361 837.089111,206.434860   C837.151855,210.955414 838.138245,215.490707 838.979492,219.966873   C840.529358,228.214111 846.488403,231.365433 854.346619,232.074921   C853.384338,233.048172 852.429138,234.862366 851.458679,234.870544   C831.820129,235.036194 812.179749,234.994629 792.283142,234.994629   C792.283142,233.604660 792.283142,232.546844 792.283142,231.501617   C805.146545,229.632095 808.865662,225.320312 808.989258,211.919907   C809.352905,172.494980 809.666687,133.069565 810.000000,93.162842  z"
   id="path6" />
<path
   fill="#FFFFFF"
   opacity="1.000000"
   stroke="none"
   d=" M402.705688,94.639771   C404.007751,83.198997 405.094238,72.127380 406.234772,60.505455   C448.279907,60.505455 490.923523,60.505455 533.964600,60.505455   C535.100281,73.129517 536.243347,85.835876 537.386475,98.542229   C536.912170,98.861786 536.437927,99.181343 535.963684,99.500900   C534.682800,98.515419 533.044067,97.772461 532.183350,96.502304   C528.537659,91.122543 525.140564,85.574936 521.619751,80.109825   C517.452698,73.641556 510.952454,70.537857 503.857361,69.197250   C497.603607,68.015617 491.109100,68.107994 484.000000,67.584732   C484.000000,70.178741 484.000000,72.104958 484.000000,74.031174   C484.000000,117.837547 483.970459,161.643967 484.045227,205.450211   C484.052795,209.876297 484.253357,214.390823 485.137665,218.705841   C486.468323,225.199051 490.705994,231.447708 500.461853,231.148941   C501.556305,233.650360 501.316681,235.044067 497.993256,235.031906   C479.005188,234.962357 460.016449,235.039841 441.029205,234.896729   C439.862640,234.887939 438.707062,233.419510 437.546356,232.630203   C437.810181,232.257004 438.074005,231.883789 438.337830,231.510590   C440.700806,231.064468 443.122253,230.815872 445.416443,230.137253   C454.303253,227.508514 455.638702,219.210907 455.709900,212.464478   C456.214386,164.668060 455.927856,116.863319 455.884888,69.061234   C455.884735,68.918663 455.757996,68.776207 455.690399,68.633698   C436.266754,66.668625 422.583954,69.865669 411.943085,90.242859   C410.965607,92.114731 410.047882,94.110458 408.660278,95.650223   C407.182739,97.289749 405.179291,98.455345 403.405487,99.827873   C402.954041,99.440750 402.502563,99.053627 402.051117,98.666504   C402.197479,97.447311 402.343811,96.228111 402.705688,94.639771  z"
   id="path7" />
<path
   fill="#FFFFFF"
   opacity="1.000000"
   stroke="none"
   d=" M770.999756,153.959335   C771.638489,157.884262 769.615967,158.050156 766.935242,158.041428   C744.452820,157.968246 721.970032,157.999985 699.487366,158.000122   C698.186462,158.000122 696.885559,158.000122 695.088684,158.000122   C694.591614,177.789597 695.470886,196.921021 709.772644,212.099716   C720.790161,223.792816 737.834595,224.393082 751.000000,216.272491   C756.475220,212.895325 761.058655,208.072418 766.464783,203.558533   C771.602173,205.406647 771.519043,205.354660 768.029724,210.934891   C758.889160,225.553101 746.048889,235.471344 728.980286,237.715088   C708.906982,240.353790 689.724731,234.455994 678.183899,214.277710   C664.531189,190.407196 664.283447,165.327362 675.060486,140.367737   C682.547363,123.028236 696.010315,111.430023 714.469360,107.443260   C738.848083,102.177979 762.771240,111.445091 769.773438,140.749969   C770.755615,144.860626 770.618896,149.238632 770.999756,153.959335  M711.618530,117.917221   C701.539001,126.130966 697.436096,137.151611 695.943237,149.642288   C713.046875,149.642288 729.418579,149.642288 746.348938,149.642288   C745.863037,143.186523 746.128540,136.961075 744.753967,131.121674   C743.304199,124.962761 741.446045,118.661903 734.358582,115.642448   C726.437866,112.268021 719.298828,113.730469 711.618530,117.917221  z"
   id="path8" />
<path
   fill="#FFFFFF"
   opacity="1.000000"
   stroke="none"
   d=" M943.000000,190.999786   C943.000000,156.357635 943.077576,122.215034 942.909363,88.073654   C942.886353,83.397522 942.086243,78.605370 940.850586,74.084328   C939.172363,67.944138 935.343445,65.204163 929.049683,65.065460   C925.649963,64.990532 924.482849,63.685951 925.262756,60.236885   C945.973022,60.236885 966.739563,60.236885 987.472778,60.236885   C989.540710,63.860752 986.321655,64.191116 984.479858,64.720573   C974.723938,67.525063 971.081421,71.425507 971.055054,81.052315   C970.932800,125.686684 970.919739,170.321823 971.060791,214.956085   C971.094055,225.482544 976.614319,230.635544 987.455505,231.164734   C988.546997,233.629013 988.348877,235.041946 985.012024,235.030060   C966.358948,234.963562 947.705200,235.039932 929.052917,234.898743   C927.883240,234.889877 926.724426,233.450073 925.880676,232.203934   C938.128113,229.529755 941.033020,226.473816 941.960449,214.266724   C942.535645,206.695099 942.668579,199.089890 943.000000,190.999786  z"
   id="path9" />
<path
   fill="#FFFFFF"
   opacity="1.000000"
   stroke="none"
   d=" M328.000000,110.000000   C328.000000,197.110779 328.000000,283.721558 328.000000,370.666016   C323.668732,370.666016 319.606506,370.666016 315.510620,370.666016   C315.510620,255.565872 315.510620,140.483093 315.510620,25.200218   C319.418335,25.200218 323.372711,25.200218 328.000000,25.200218   C328.000000,53.333733 328.000000,81.416862 328.000000,110.000000  z"
   id="path10" />
<path
   fill="#FFFFFF"
   opacity="1.000000"
   stroke="none"
   d=" M979.052612,335.585236   C983.313416,336.954529 985.666809,334.720856 986.866699,331.505585   C987.754517,329.126892 987.936096,326.382751 987.953796,323.798157   C988.050720,309.634491 988.018860,295.469788 987.992249,281.305511   C987.978088,273.774750 987.035767,272.135101 980.272583,268.492798   C989.364929,268.492798 997.552429,268.492798 1005.739929,268.492798   C999.316040,271.371094 998.901978,276.819153 998.955627,282.735352   C999.090149,297.565002 998.992798,312.396698 999.003357,327.227570   C999.008179,333.994110 999.040161,333.712982 1005.511963,334.083557   C1011.318665,334.416016 1016.252258,332.636414 1020.259460,328.790100   C1022.284668,326.846191 1023.243286,323.828339 1024.896606,321.443390   C1025.677856,320.316437 1026.958618,319.535919 1028.013184,318.598480   C1028.415771,318.834839 1028.818359,319.071167 1029.220947,319.307495   C1028.393433,325.392761 1027.565796,331.478027 1026.749023,337.483734   C1002.847534,337.483734 979.124512,337.483734 955.073120,337.483734   C955.497192,336.779877 955.854187,335.472290 956.404297,335.385254   C961.689392,334.549377 959.818054,330.648102 959.761169,327.633453   C959.744385,326.748108 958.893616,325.900665 958.520020,324.996582   C954.390076,315.002075 954.395142,314.999969 943.550720,315.000000   C940.563782,315.000031 937.576843,315.000000 934.685547,315.000000   C929.231262,330.057587 929.238220,330.175446 936.373657,337.486694   C930.439392,337.486694 924.957947,337.486694 919.632996,337.486694   C921.671570,333.441742 924.294067,329.230255 926.000916,324.675598   C932.494873,307.346344 938.692383,289.905914 945.003723,272.508179   C945.336365,271.591278 945.517700,270.547638 946.085999,269.805298   C946.888550,268.756866 947.986633,267.934631 948.958374,267.015717   C949.783447,267.981720 950.969482,268.815186 951.380005,269.933411   C958.316406,288.827759 965.006042,307.814697 972.160889,326.625000   C973.398682,329.878967 976.517151,332.417603 979.052612,335.585236  M946.082520,289.358154   C945.805481,288.569214 945.528442,287.780273 944.901672,285.995300   C941.757874,294.928802 938.987305,302.801636 936.148682,310.867981   C942.184204,310.867981 947.785889,310.867981 953.604248,310.867981   C951.204529,303.799683 948.866882,296.914368 946.082520,289.358154  z"
   id="path11" />
<path
   fill="#FFFFFF"
   opacity="1.000000"
   stroke="none"
   d=" M487.977814,338.000000   C483.410248,338.000000 479.333954,338.000000 475.257629,338.000000   C475.024811,337.594330 474.791992,337.188660 474.559174,336.783020   C479.984558,335.383362 483.392792,332.520844 484.120972,326.916687   C485.338959,317.543091 486.989380,308.225098 488.498199,298.890228   C489.011200,295.716339 489.711975,292.571808 490.178467,289.392090   C490.292419,288.615204 489.821045,287.752472 489.324036,285.729279   C479.998505,302.190277 471.398621,317.453461 462.695099,332.657318   C461.122742,335.404022 460.150208,339.458374 455.235901,337.572479   C454.777069,331.634003 455.112305,325.497406 453.608246,319.850769   C452.424255,315.405670 451.851379,311.207764 451.795349,306.670441   C451.760773,303.869751 449.594513,301.144897 449.274963,298.286530   C448.812775,294.152832 449.156647,289.928986 449.156647,285.743622   C448.738678,285.428802 448.320709,285.113983 447.902740,284.799164   C446.950989,285.894562 445.468170,286.847198 445.129547,288.107330   C441.676331,300.956726 438.035339,313.779205 435.356842,326.796448   C434.698792,329.994720 437.351776,333.874237 438.512695,337.535583   C433.718384,337.535583 427.575226,337.535583 421.164368,337.535583   C421.295685,337.076813 421.289215,336.172607 421.644501,335.995941   C427.915924,332.877838 429.394684,326.813416 430.989441,320.862854   C434.770447,306.754364 438.003143,292.474213 442.449341,278.580902   C444.221558,273.043213 442.689148,270.905914 438.110626,268.204559   C443.530273,268.204559 449.055359,267.631744 454.297272,268.597015   C455.651093,268.846313 456.493713,273.868317 456.923340,276.793121   C458.751556,289.238525 460.306396,301.723907 462.054047,314.181610   C462.241547,315.518097 463.034851,316.769623 463.964355,319.112000   C467.978546,312.231415 471.512939,306.287811 474.935638,300.280609   C480.656921,290.239197 486.292969,280.149170 492.013733,270.107422   C492.461212,269.321960 493.275360,268.192078 493.945312,268.173645   C499.580505,268.018372 505.221832,268.085205 511.174255,268.790802   C502.289856,270.104065 502.158966,277.160492 501.116638,283.193115   C498.562073,297.977631 496.327728,312.818054 494.036377,327.647064   C493.389496,331.833496 494.026764,335.519745 499.388733,336.673584   C499.224121,337.115723 499.059509,337.557861 498.894928,338.000000   C495.419617,338.000000 491.944336,338.000000 487.977814,338.000000  z"
   id="path12" />
<path
   fill="#FFFFFF"
   opacity="1.000000"
   stroke="none"
   d=" M579.212769,337.999084   C577.960388,337.929535 577.145996,337.860687 576.052185,337.768219   C578.709290,325.376495 581.329224,313.183838 583.923584,300.985779   C584.059937,300.344849 584.116699,299.626282 583.973328,298.997955   C583.522949,297.023987 582.959290,295.075867 582.439575,293.117737   C580.570679,293.966858 578.339294,294.416107 576.890808,295.729034   C566.415771,305.223755 561.976440,318.073761 558.086243,331.064545   C555.950745,338.195435 556.351807,338.315552 547.989502,337.705200   C549.624146,323.467072 554.621216,309.757263 555.808167,295.502228   C555.399231,295.401489 554.990295,295.300751 554.581360,295.199982   C552.922852,297.109314 551.264404,299.018646 548.715698,301.952820   C548.176270,295.464935 551.437500,291.912842 554.733337,289.118042   C556.910461,287.271942 560.545837,287.145599 563.528320,286.249298   C564.302856,288.947540 565.571472,291.621765 565.704224,294.351196   C565.822266,296.778778 564.681458,299.267548 565.121948,302.360229   C567.080200,299.913910 569.048035,297.475250 570.994690,295.019745   C575.106201,289.833496 579.913330,285.850464 587.004089,286.016754   C590.974243,286.109863 593.015930,288.209320 593.001648,292.231537   C592.990540,295.362976 592.999390,298.494476 593.977112,302.184174   C595.297485,300.567932 596.661682,298.985291 597.930176,297.329315   C602.269287,291.664703 606.767151,286.219543 614.742676,286.015442   C619.699463,285.888611 622.446350,288.094177 621.855774,293.093201   C620.865723,301.473053 618.998596,309.751282 617.442322,318.061401   C616.653503,322.273163 615.737549,326.461121 614.879089,330.659851   C615.288696,330.855103 615.698303,331.050385 616.107910,331.245636   C618.587341,328.290009 621.066772,325.334381 623.546204,322.378754   C624.507874,328.789093 616.681396,338.373779 611.435547,338.939514   C608.104065,339.298767 605.241699,338.454041 606.033875,334.175110   C608.074524,323.151245 610.281799,312.158203 612.423889,301.153137   C612.610413,300.194580 613.075134,299.198212 612.940552,298.288940   C612.690247,296.596924 612.093628,294.956146 611.641235,293.294006   C610.024353,293.745117 607.855835,293.687531 606.887817,294.737091   C603.071289,298.875000 598.693787,302.895294 596.252258,307.816498   C591.516785,317.361328 587.948547,327.485199 583.638062,337.999756   C582.939575,337.999756 581.295105,337.999756 579.212769,337.999084  z"
   id="path13" />
<path
   fill="#FFFFFF"
   opacity="1.000000"
   stroke="none"
   d=" M815.000000,283.080933   C814.999878,280.929138 814.931396,279.260254 815.012573,277.598633   C815.251282,272.713959 812.811035,270.035278 808.009583,269.470612   C808.280457,268.819611 808.403503,268.282654 808.517334,268.284576   C820.416870,268.486176 832.373718,268.097839 844.194397,269.186462   C852.267456,269.929932 857.624023,276.390015 858.010864,282.853546   C858.627014,293.149567 856.807312,298.770172 845.954407,303.058380   C845.368713,303.289795 844.875427,303.754974 844.069824,304.290283   C853.440674,313.992676 855.114624,328.546722 867.163513,337.068970   C853.064209,338.842438 850.752319,339.621399 844.973999,327.921417   C842.080383,322.062408 838.687500,316.415253 836.247986,310.378296   C834.470703,305.980103 831.439148,305.154175 827.009766,305.087372   C827.009766,313.499878 826.556519,321.833710 827.276062,330.065033   C827.502380,332.654877 830.876099,334.969604 832.765808,337.355286   C825.331543,337.355286 816.852661,337.355286 808.102051,337.355286   C808.341248,336.972870 808.559448,336.181519 808.924377,336.106842   C814.630249,334.939209 815.045410,330.716248 815.023682,326.039185   C814.958008,311.882111 815.000000,297.724548 815.000000,283.080933  M831.348022,301.999725   C839.790771,301.327423 844.699646,298.173798 845.795898,292.210480   C846.297607,289.481262 846.018738,286.596802 845.988342,283.783844   C845.901428,275.737396 838.100525,269.316193 830.308533,271.182251   C828.979065,271.500580 827.199463,273.634796 827.148499,274.987396   C826.849487,282.931427 827.116638,290.894989 826.939880,298.846344   C826.877502,301.651123 828.040894,302.321350 831.348022,301.999725  z"
   id="path14" />
<path
   fill="#FFFFFF"
   opacity="1.000000"
   stroke="none"
   d=" M1310.143799,268.000000   C1324.585815,268.000000 1338.544556,268.000000 1352.738525,268.000000   C1353.138306,273.806305 1353.507568,279.168976 1353.876831,284.531677   C1353.356567,284.915283 1352.836304,285.298859 1352.316040,285.682465   C1346.422363,272.675507 1336.268188,269.154724 1323.256836,271.495514   C1323.256836,280.356140 1323.256836,289.294098 1323.256836,298.635345   C1327.388550,298.635345 1331.981079,299.668549 1335.715820,298.322266   C1338.949463,297.156616 1341.209717,293.291168 1344.388916,290.133667   C1344.388916,298.715424 1344.388916,306.160126 1344.388916,313.604828   C1344.032349,313.897705 1343.675781,314.190582 1343.319214,314.483459   C1339.860840,304.657928 1332.773438,301.941742 1323.010254,303.301300   C1323.010254,312.551575 1322.929810,321.826843 1323.128784,331.096069   C1323.149902,332.074768 1324.834351,333.865875 1325.713013,333.845001   C1333.273071,333.665283 1341.540527,336.151337 1347.526245,329.054688   C1349.344604,326.898956 1350.892944,324.485229 1352.327759,322.049927   C1352.963623,320.970520 1353.010132,319.544006 1353.324219,318.275116   C1354.303101,318.938599 1355.281860,319.602051 1356.260742,320.265533   C1355.565796,326.083160 1354.870850,331.900818 1354.200684,337.510254   C1336.748413,337.510254 1319.959595,337.510254 1303.170776,337.510254   C1310.371826,334.999054 1311.026855,329.316864 1311.010986,323.186707   C1310.975464,309.355133 1310.794189,295.518951 1311.092529,281.693726   C1311.227905,275.428253 1309.968384,270.647644 1302.684937,269.260345   C1302.836426,268.840240 1302.987915,268.420105 1303.139282,268.000000   C1305.312988,268.000000 1307.486694,268.000000 1310.143799,268.000000  z"
   id="path15" />
<path
   fill="#FFFFFF"
   opacity="1.000000"
   stroke="none"
   d=" M1056.344727,271.836426   C1054.405151,270.724792 1052.773926,269.896881 1049.996582,268.487183   C1067.287109,268.487183 1083.389893,268.487183 1099.862549,268.487183   C1100.260010,273.771484 1100.663574,279.136780 1101.067139,284.502045   C1100.464478,284.931854 1099.861816,285.361664 1099.259155,285.791443   C1093.886841,271.933258 1083.187988,269.657410 1070.367798,271.367432   C1070.367798,280.240753 1070.367798,289.298309 1070.367798,299.097809   C1074.529541,298.906342 1079.078247,299.629425 1082.848755,298.240265   C1086.095459,297.044098 1088.454956,293.439789 1091.397461,290.724152   C1091.397461,298.725861 1091.397461,306.174194 1091.397461,314.560333   C1088.250122,310.444946 1086.413574,306.070953 1083.166870,304.335846   C1079.706421,302.486572 1074.912231,303.132812 1070.009766,302.616852   C1070.009766,312.523682 1069.913208,321.793304 1070.148560,331.054474   C1070.174072,332.058746 1072.061157,333.771820 1073.184326,333.857971   C1077.490723,334.188232 1081.869873,334.323639 1086.162109,333.910736   C1092.998657,333.252991 1096.062012,327.924561 1099.138672,322.655487   C1099.904785,321.343475 1101.510498,320.521790 1102.730347,319.474731   C1103.027222,319.765747 1103.324097,320.056763 1103.620972,320.347748   C1103.078735,324.811066 1102.791382,329.328613 1101.859619,333.709137   C1101.520142,335.305695 1099.666260,337.791809 1098.470093,337.810974   C1082.982178,338.059174 1067.488403,337.937683 1051.996216,337.884033   C1051.756836,337.883209 1051.518433,337.560211 1050.580566,336.882111   C1059.315674,333.437622 1057.976929,326.023285 1057.991211,319.140259   C1058.020142,305.311737 1058.049927,291.482697 1057.940186,277.654999   C1057.925537,275.806763 1057.102173,273.964935 1056.344727,271.836426  z"
   id="path16" />
<path
   fill="#FFFFFF"
   opacity="1.000000"
   stroke="none"
   d=" M885.033569,330.536865   C885.802429,331.978882 886.355896,333.533234 887.319946,333.854248   C898.697998,337.642487 909.302734,333.216797 915.132385,322.554932   C915.744873,321.434753 916.997437,320.664612 918.711060,318.992462   C918.038879,325.177979 917.679260,330.017944 916.877991,334.783691   C916.677673,335.975250 915.067200,337.841431 914.085632,337.853638   C898.498840,338.047760 882.908875,337.990234 866.703491,337.509583   C875.656982,333.766968 872.839722,326.310822 872.935059,320.016052   C873.144409,306.195221 872.834778,292.365936 873.091064,278.546661   C873.178711,273.817596 871.934204,270.594513 867.186218,268.615295   C883.009216,268.615295 898.832275,268.615295 914.923584,268.615295   C915.362915,273.526062 915.812195,278.548248 916.301025,284.012146   C911.532776,279.708282 907.875183,274.533936 902.918396,272.450073   C897.776489,270.288391 891.376404,271.119446 885.236816,270.617981   C885.236816,280.396851 885.236816,289.330444 885.236816,298.272614   C895.994934,300.958099 899.997437,299.582184 906.490112,290.406006   C906.490112,298.310486 906.490112,305.511841 906.490112,312.713196   C902.853394,302.084961 894.311584,302.531342 885.008911,303.250061   C885.008911,312.213043 885.008911,321.144623 885.033569,330.536865  z"
   id="path17" />
<path
   fill="#FFFFFF"
   opacity="1.000000"
   stroke="none"
   d=" M703.285461,291.216766   C707.317566,289.310669 710.952454,286.921753 714.894409,286.192200   C719.470886,285.345276 722.405273,288.076263 721.851196,292.716980   C720.830872,301.264099 718.956848,309.711212 717.379272,318.188995   C716.603882,322.356232 715.696045,326.498871 715.961609,331.095490   C718.542725,328.208740 721.123901,325.321991 723.705078,322.435242   C724.277954,328.343475 716.562683,337.892944 711.975098,338.951630   C707.718994,339.933807 705.574890,338.625732 706.110596,334.392426   C707.172546,326.000031 708.805420,317.676178 710.334167,309.348145   C711.067078,305.355621 712.261475,301.444092 712.903137,297.440765   C713.104187,296.186676 712.524841,293.947723 711.693298,293.594604   C710.521545,293.096954 708.581299,293.569244 707.319031,294.262817   C699.967041,298.302612 696.656555,305.761993 693.334106,312.705017   C689.572083,320.566559 687.268372,329.125946 684.191528,337.772644   C682.008545,337.772644 679.228394,337.772644 676.077942,337.772644   C677.763977,329.380219 679.319153,321.143463 681.086853,312.952606   C683.966431,299.609558 687.160461,286.330536 689.762085,272.935181   C690.168640,270.841644 688.145752,268.276215 686.867493,264.940491   C690.625122,264.256775 695.349304,263.397125 700.769897,262.410767   C697.669495,277.259705 694.748901,291.247009 691.784607,305.443939   C695.703613,300.570587 699.363831,296.019104 703.285461,291.216766  z"
   id="path18" />
<path
   fill="#FFFFFF"
   opacity="1.000000"
   stroke="none"
   d=" M1222.976074,268.756714   C1225.940552,265.311676 1227.806030,266.831543 1228.916260,269.939880   C1235.029663,287.056000 1240.850586,304.280090 1247.221924,321.298706   C1249.354736,326.995605 1252.813721,332.196045 1255.615967,337.527100   C1248.328735,337.527100 1239.789307,337.527100 1230.310059,337.527100   C1233.370850,335.236145 1235.747803,333.456940 1237.616821,332.058014   C1235.939209,327.520355 1234.234131,323.622833 1233.080933,319.568359   C1232.114746,316.171753 1230.498169,314.587463 1226.804932,314.934753   C1223.502441,315.245331 1220.119385,315.272614 1216.823730,314.928070   C1213.060669,314.534607 1210.914917,315.737457 1210.144653,319.535492   C1209.630005,322.072479 1208.697021,324.521545 1208.068115,327.039093   C1206.912231,331.665344 1209.265747,334.723572 1212.790894,337.608337   C1206.983276,337.608337 1201.175659,337.608337 1195.727661,337.608337   C1207.716797,317.977539 1212.040039,295.137817 1220.934082,274.140778   C1221.631226,272.494415 1222.271851,270.824066 1222.976074,268.756714  M1227.919800,301.677032   C1226.136475,296.653381 1224.353271,291.629761 1222.321899,285.907623   C1219.304321,294.442169 1216.481934,302.424408 1213.591675,310.598724   C1219.834229,310.598724 1225.319458,310.598724 1230.937988,310.598724   C1229.861450,307.624786 1228.930298,305.052246 1227.919800,301.677032  z"
   id="path19" />
<path
   fill="#FFFFFF"
   opacity="1.000000"
   stroke="none"
   d=" M636.659424,339.785492   C635.598572,344.590607 634.593079,349.049377 634.124207,353.563873   C633.980469,354.947693 635.307739,356.484283 636.429993,359.002472   C631.387756,361.537933 625.233826,359.230774 619.467651,360.059174   C619.318970,359.351929 619.117615,358.813904 619.207092,358.760162   C626.960938,354.103424 625.995239,345.549316 627.813110,338.494324   C631.047791,325.940643 633.297241,313.132996 635.936768,300.427002   C635.995483,300.144562 635.790344,299.807404 635.479797,298.628601   C633.161133,299.736542 630.977966,300.779724 627.808899,302.294006   C628.088074,300.534698 627.834167,298.660645 628.556885,298.138580   C633.604431,294.492584 638.765015,291.473480 639.848694,284.129547   C640.185669,281.846161 645.112671,280.240082 648.977722,277.619171   C648.532898,281.798126 648.271667,284.252563 648.054321,286.294617   C653.007996,286.294617 657.558533,285.523224 661.733643,286.447693   C671.891785,288.696899 675.067993,298.420776 673.839844,308.192688   C672.536194,318.565735 668.676819,327.878174 659.403809,334.221008   C653.051208,338.566284 646.384705,339.843994 638.976807,338.556946   C638.362488,338.450195 637.609680,339.140564 636.659424,339.785492  M646.925537,335.045502   C650.240723,333.181549 654.163940,331.922272 656.744202,329.327484   C662.069092,323.972534 663.997192,316.648102 664.823303,309.436890   C665.824524,300.698273 663.520874,293.382324 655.240540,291.590210   C650.469055,290.557556 646.669861,292.195374 645.645264,296.822296   C643.508423,306.472015 641.687561,316.191498 639.573547,325.846588   C638.315857,331.590424 640.172180,334.415100 646.925537,335.045502  z"
   id="path20" />
<path
   fill="#FFFFFF"
   opacity="1.000000"
   stroke="none"
   d=" M1113.772949,271.755249   C1123.597290,264.561157 1133.895142,266.431641 1144.150269,269.203827   C1145.350342,269.528229 1146.736938,271.596497 1146.869507,272.969147   C1147.240356,276.806305 1146.998657,280.702637 1146.998657,284.575623   C1146.402100,284.705353 1145.805542,284.835083 1145.208984,284.964783   C1143.258179,281.901276 1141.086914,278.953308 1139.407471,275.747620   C1136.772583,270.718262 1131.595947,270.543945 1127.378662,270.312531   C1122.580322,270.049194 1118.792847,274.740601 1118.028198,279.418243   C1117.155151,284.758209 1119.432251,289.310638 1124.439331,292.070648   C1129.862915,295.060364 1135.347046,297.941071 1140.749634,300.967926   C1148.807007,305.482025 1150.825439,314.964691 1149.569336,321.085938   C1146.767456,334.739197 1138.432861,338.121338 1130.426880,338.761566   C1124.015259,339.274261 1117.415283,337.847321 1110.939819,336.977631   C1107.561646,336.523926 1106.758179,334.506683 1107.392822,330.913757   C1108.119385,326.800232 1107.561279,322.459839 1108.515503,317.682739   C1109.382935,318.930756 1110.183350,320.232269 1111.129883,321.417084   C1114.233887,325.302216 1116.971069,329.617462 1120.639771,332.877869   C1124.731201,336.514130 1129.649414,335.759979 1134.401367,333.214874   C1139.243530,330.621368 1140.690063,325.912750 1140.679077,321.354797   C1140.673218,318.875549 1137.909058,315.754578 1135.565308,314.066803   C1130.962769,310.752472 1125.870605,308.073730 1120.827881,305.423584   C1108.001343,298.682831 1104.357178,285.636688 1112.630615,273.767212   C1112.999023,273.238739 1113.218506,272.606506 1113.772949,271.755249  z"
   id="path21" />
<path
   fill="#FFFFFF"
   opacity="1.000000"
   stroke="none"
   d=" M1156.284424,281.201965   C1155.189087,282.581482 1154.351562,283.702179 1153.514038,284.822876   C1153.061401,284.737518 1152.608765,284.652191 1152.156006,284.566833   C1152.638184,279.084045 1153.120361,273.601227 1153.612915,268.001007   C1169.801758,268.001007 1185.774170,268.064362 1201.745239,267.948944   C1205.039307,267.925140 1206.118164,269.144012 1206.074463,272.350861   C1206.034790,275.258209 1206.773804,278.168854 1206.885742,281.088928   C1206.935303,282.382141 1206.285400,283.702179 1205.171509,285.516388   C1200.892334,277.783630 1196.702148,270.321625 1186.000000,271.260071   C1186.000000,279.983368 1186.000000,288.773407 1186.000000,297.563446   C1186.000000,306.549500 1186.083862,315.536682 1185.967773,324.521210   C1185.900513,329.716949 1185.449463,334.937012 1191.854004,337.514923   C1183.324585,337.514923 1174.795044,337.514923 1166.265625,337.514923   C1175.160278,333.149994 1173.962524,325.018005 1173.985962,317.417542   C1174.033081,302.133026 1174.000000,286.848297 1174.000000,271.624176   C1165.386719,270.157715 1160.477417,272.847137 1156.284424,281.201965  z"
   id="path22" />
<path
   fill="#FFFFFF"
   opacity="1.000000"
   stroke="none"
   d=" M1268.000000,305.999939   C1268.000000,294.201843 1268.000000,282.903687 1268.000000,271.139496   C1263.318237,271.148315 1258.968140,271.030945 1255.730103,274.714813   C1252.889038,277.947174 1250.241455,281.349701 1246.165283,284.556030   C1246.767944,279.161926 1247.370605,273.767822 1247.997070,268.159943   C1264.750977,268.159943 1282.010376,268.159943 1299.700928,268.159943   C1300.140259,273.577026 1300.575195,278.938721 1301.010132,284.300415   C1300.487671,284.616699 1299.965210,284.932983 1299.442627,285.249237   C1294.718750,278.234100 1291.240723,269.376190 1280.000000,271.510010   C1280.000000,275.122223 1280.000000,279.070587 1280.000000,283.018982   C1280.000000,296.001556 1279.972290,308.984253 1280.012329,321.966705   C1280.030884,327.980988 1278.404785,334.796844 1286.818604,337.529053   C1277.966675,337.529053 1269.114746,337.529053 1260.262939,337.529053   C1268.594238,334.580505 1268.024292,327.655060 1268.003052,320.980469   C1267.987793,316.153656 1268.000000,311.326782 1268.000000,305.999939  z"
   id="path23" />
<path
   fill="#FFFFFF"
   opacity="1.000000"
   stroke="none"
   d=" M534.919922,307.013000   C529.398254,309.054688 524.359863,311.423004 519.067810,312.850922   C515.838989,313.722137 514.577148,314.976929 514.987549,318.168304   C515.423950,321.562408 515.182678,325.170441 516.279236,328.322601   C517.848999,332.835266 522.013306,334.270355 526.102295,331.881226   C529.598511,329.838440 532.650818,327.037842 535.909729,324.586029   C537.259644,323.570465 538.636169,322.590240 540.000610,321.593964   C540.387390,321.900787 540.774109,322.207581 541.160889,322.514404   C540.454285,323.934875 539.899841,325.458679 539.016479,326.759094   C533.153564,335.389832 525.507446,340.428558 514.533997,339.037903   C509.702362,338.425568 504.187347,331.391144 505.085266,326.618378   C505.474701,324.548401 506.049683,322.429535 505.943573,320.363525   C505.219910,306.271576 512.759644,296.793793 523.401062,289.199097   C528.298523,285.703735 534.218384,285.269653 539.944336,286.160034   C546.230225,287.137512 548.525269,295.436554 543.869446,300.445465   C541.464783,303.032471 538.182251,304.803406 534.919922,307.013000  M537.187866,297.341339   C536.985168,294.948364 536.782471,292.555389 536.579712,290.162415   C534.097595,290.555817 531.283691,290.332458 529.194336,291.456177   C522.412598,295.103546 519.430359,301.612457 516.452271,309.924286   C524.606140,306.293762 532.088562,304.573517 537.187866,297.341339  z"
   id="path24" />
<path
   fill="#FFFFFF"
   opacity="1.000000"
   stroke="none"
   d=" M768.047729,338.459045   C763.187561,338.357086 758.454956,338.652344 754.151855,337.432404   C748.358276,335.789856 747.968933,334.121063 750.040649,328.295929   C750.449829,327.145508 751.109802,326.084259 751.527100,325.239166   C754.376465,328.245544 756.692200,331.636536 759.853027,333.782959   C763.764587,336.439148 769.034241,335.187805 771.450745,332.027618   C774.174805,328.465210 773.580383,324.022308 769.622864,320.159912   C767.155945,317.752350 764.497009,315.531372 761.831909,313.338867   C755.620850,308.229309 754.937378,301.416565 757.968140,294.401001   C760.716187,288.039917 769.250122,284.514069 776.406921,286.202942   C777.344727,286.424225 778.251953,286.774994 779.189392,286.998230   C785.877319,288.590790 786.897400,292.470337 781.655884,298.321472   C780.731750,296.884644 779.861206,295.592346 779.052673,294.262390   C776.829590,290.605682 773.357727,289.255920 769.473755,290.159698   C767.605042,290.594482 765.277100,292.378448 764.645203,294.098267   C763.415588,297.444550 762.910339,301.208069 766.446167,303.994568   C768.634705,305.719299 770.649536,307.665680 772.849060,309.375183   C778.561829,313.815216 781.466125,319.630157 779.834351,326.701874   C778.482056,332.562256 774.595642,336.758606 768.047729,338.459045  z"
   id="path25" />
<path
   fill="#FFFFFF"
   opacity="1.000000"
   stroke="none"
   d=" M748.953674,324.814148   C745.673218,329.955841 743.819519,335.828400 737.613708,338.155243   C732.608643,340.031921 729.515808,338.516479 730.133667,333.236176   C731.074890,325.191498 732.866516,317.243835 734.365967,309.267944   C735.280457,304.403320 736.324341,299.562988 736.250488,294.237122   C734.403503,296.413513 732.556458,298.589905 730.497009,301.016602   C729.909302,300.191711 729.106384,299.586029 729.103943,298.977142   C729.087402,294.898621 736.516602,286.629364 740.601929,286.016541   C744.713867,285.399689 747.734436,288.309021 746.863708,292.405609   C744.375183,304.113708 741.696960,315.781403 739.143738,327.475952   C738.937805,328.419281 739.116577,329.446564 739.116577,331.882477   C741.846680,328.876343 743.708679,326.586395 745.860535,324.612427   C746.454407,324.067657 747.911865,324.464264 748.953674,324.814148  z"
   id="path26" />
<path
   fill="#FFFFFF"
   opacity="1.000000"
   stroke="none"
   d=" M749.311401,268.819946   C749.708008,271.812988 750.640503,274.936005 749.601562,277.122101   C748.960449,278.471130 745.155640,279.140533 743.073181,278.696960   C741.635254,278.390686 739.861694,275.695831 739.790039,274.002716   C739.711121,272.138367 740.943359,269.339172 742.455688,268.521179   C744.142639,267.608765 746.787231,268.466858 749.311401,268.819946  z"
   id="path27" />







</svg>
