<svg xmlns="http://www.w3.org/2000/svg" viewBox="0 0 192 60" width="192" height="60">
    <path d="M9.14,27.13V47.31H0V12.67H11.8l10.81,16v-16h10V31.46L22.27,45.26ZM61.5,47.31h9.14V12.68H61.5Zm-13.61,0H58.43V1.77L24.36,47.3h10.8l14.29-19V38.66l-7.31.06Zm49.61,0h4.14V31.39H89.25V36.2h6.51a7,7,0,0,1-2.06,4.72,7,7,0,0,1-4.94,1.63A7.63,7.63,0,0,1,85,41.71a7.11,7.11,0,0,1-2.47-2.24,9.94,9.94,0,0,1-1.38-3.15,14.91,14.91,0,0,1-.44-3.6A16,16,0,0,1,81.19,29a9.68,9.68,0,0,1,1.38-3.23A7,7,0,0,1,85,23.47a7.63,7.63,0,0,1,3.72-.84,6.5,6.5,0,0,1,4,1.24A6.12,6.12,0,0,1,95,27.58h6.19a10.87,10.87,0,0,0-1.39-4.46A11.25,11.25,0,0,0,97,19.86a12.33,12.33,0,0,0-3.82-2,14.37,14.37,0,0,0-4.38-.68,14.81,14.81,0,0,0-6.11,1.2,13,13,0,0,0-4.53,3.29,14.74,14.74,0,0,0-2.84,4.95,18.4,18.4,0,0,0-1,6.1,17.81,17.81,0,0,0,1,6,14.18,14.18,0,0,0,2.85,4.86,13.25,13.25,0,0,0,4.53,3.26A14.92,14.92,0,0,0,88.76,48,10.56,10.56,0,0,0,93,47.09,9.91,9.91,0,0,0,96.84,44Zm6.54,0h5.88V17.87H104Zm8.52-6a9.78,9.78,0,0,0,5.71,5.8,12.08,12.08,0,0,0,4.54.8,12.32,12.32,0,0,0,4.57-.8,9.76,9.76,0,0,0,5.72-5.8,12.72,12.72,0,0,0,.79-4.62A13,13,0,0,0,133.1,32a9.72,9.72,0,0,0-5.72-5.82,12.32,12.32,0,0,0-4.57-.8,12.08,12.08,0,0,0-4.54.8A9.74,9.74,0,0,0,112.56,32a13.17,13.17,0,0,0-.78,4.64A12.94,12.94,0,0,0,112.56,41.29Zm5.34-7.13a6.29,6.29,0,0,1,.85-2.18,4.52,4.52,0,0,1,1.59-1.54,4.68,4.68,0,0,1,2.47-.6,4.82,4.82,0,0,1,2.5.6A4.66,4.66,0,0,1,126.92,32a6.27,6.27,0,0,1,.84,2.18,12.35,12.35,0,0,1,.25,2.51,12.09,12.09,0,0,1-.25,2.49,6.43,6.43,0,0,1-.84,2.18,4.41,4.41,0,0,1-1.61,1.54,4.92,4.92,0,0,1-2.5.58,4.78,4.78,0,0,1-2.47-.58,4.27,4.27,0,0,1-1.59-1.54,6.45,6.45,0,0,1-.85-2.18,12.09,12.09,0,0,1-.25-2.49A12.35,12.35,0,0,1,117.9,34.16Zm17.91,13.15h5.56V44.58h.08a5.4,5.4,0,0,0,2.8,2.55,11,11,0,0,0,4.2.76,8.08,8.08,0,0,0,6-2.7,10.64,10.64,0,0,0,2-3.51,14.4,14.4,0,0,0,.79-5,14.4,14.4,0,0,0-.79-5.05,10.43,10.43,0,0,0-2-3.49,8.16,8.16,0,0,0-6-2.68,9.78,9.78,0,0,0-3.81.76,6.23,6.23,0,0,0-2.91,2.43h-.06V17.87h-5.87Zm15.31-8.09a6.48,6.48,0,0,1-.91,2.18,4.47,4.47,0,0,1-1.56,1.5,4.7,4.7,0,0,1-4.45,0,4.5,4.5,0,0,1-1.54-1.5,6.68,6.68,0,0,1-.9-2.18,11.26,11.26,0,0,1-.29-2.55,11.48,11.48,0,0,1,.29-2.59,6.77,6.77,0,0,1,.9-2.18,4.69,4.69,0,0,1,1.54-1.5,4.7,4.7,0,0,1,4.45,0,4.66,4.66,0,0,1,1.56,1.5,6.57,6.57,0,0,1,.91,2.18,11.48,11.48,0,0,1,.29,2.59A11.26,11.26,0,0,1,151.12,39.22Zm14.13-6.66a3.31,3.31,0,0,1,1.17-2.5,4.38,4.38,0,0,1,2.69-.75,9.44,9.44,0,0,1,1.45.1,3.28,3.28,0,0,1,1.19.41,2.22,2.22,0,0,1,.82.87,3.09,3.09,0,0,1,.31,1.51,1.69,1.69,0,0,1-.57,1.38,3.85,3.85,0,0,1-1.55.72,14.92,14.92,0,0,1-2.2.38c-.82.08-1.68.19-2.59.33a23,23,0,0,0-2.65.55A7.74,7.74,0,0,0,161,36.62a5,5,0,0,0-1.64,1.88,6.41,6.41,0,0,0-.62,3,6.74,6.74,0,0,0,.55,2.85,5.33,5.33,0,0,0,1.55,2,6.65,6.65,0,0,0,2.31,1.18,10,10,0,0,0,2.84.39,13.13,13.13,0,0,0,3.88-.59,7.79,7.79,0,0,0,3.29-2,7.24,7.24,0,0,0,.15,1,7,7,0,0,0,.26,1h5.94a5.09,5.09,0,0,1-.57-2,20.5,20.5,0,0,1-.17-2.77V31.47a5.15,5.15,0,0,0-.87-3.1,5.89,5.89,0,0,0-2.22-1.85,10.31,10.31,0,0,0-3-.89,24,24,0,0,0-3.26-.22,18,18,0,0,0-3.54.35,9.69,9.69,0,0,0-3.14,1.18,7.11,7.11,0,0,0-2.31,2.19,6.88,6.88,0,0,0-1,3.43Zm7.63,6.51a11.1,11.1,0,0,1-.1,1.33,4.34,4.34,0,0,1-.56,1.63,3.77,3.77,0,0,1-1.39,1.39,5.15,5.15,0,0,1-2.66.58,6.72,6.72,0,0,1-1.35-.13,3.35,3.35,0,0,1-1.15-.43,2.3,2.3,0,0,1-.78-.83,2.8,2.8,0,0,1-.29-1.34,2.93,2.93,0,0,1,.29-1.35,2.51,2.51,0,0,1,.76-.91,3.74,3.74,0,0,1,1.09-.56,8.36,8.36,0,0,1,1.31-.33c.43-.08.89-.15,1.37-.21a12.76,12.76,0,0,0,1.35-.21,9.39,9.39,0,0,0,1.19-.3,2.64,2.64,0,0,0,.92-.52Zm8.67,8.24h5.87V17.87h-5.87Zm9-3.18A1.46,1.46,0,1,0,192,45.58a1.44,1.44,0,0,0-1.43-1.45Zm0,.23a1.2,1.2,0,0,1,1.16,1.23,1.17,1.17,0,1,1-2.33,0,1.19,1.19,0,0,1,1.16-1.22Zm-.28,1.37h.18a.3.3,0,0,1,.35.28,1.1,1.1,0,0,0,.11.41h.27a1.09,1.09,0,0,1-.11-.4q0-.35-.27-.39h0a.4.4,0,0,0,.32-.39.38.38,0,0,0-.15-.34.85.85,0,0,0-.5-.12,2.92,2.92,0,0,0-.46,0v1.61h.26Zm0-.75h.19c.29,0,.39.14.39.28s-.18.28-.39.28h-.19Z" fill="#fff"/>
</svg>
