<?xml version="1.0" encoding="UTF-8" standalone="no"?>
<svg
   width="2500"
   height="2500"
   viewBox="0 0 192.756 192.756"
   version="1.1"
   id="svg3"
   sodipodi:docname="8.svg"
   inkscape:version="1.4 (e7c3feb1, 2024-10-09)"
   xmlns:inkscape="http://www.inkscape.org/namespaces/inkscape"
   xmlns:sodipodi="http://sodipodi.sourceforge.net/DTD/sodipodi-0.dtd"
   xmlns="http://www.w3.org/2000/svg"
   xmlns:svg="http://www.w3.org/2000/svg">
  <defs
     id="defs3" />
  <sodipodi:namedview
     id="namedview3"
     pagecolor="#505050"
     bordercolor="#eeeeee"
     borderopacity="1"
     inkscape:showpageshadow="0"
     inkscape:pageopacity="0"
     inkscape:pagecheckerboard="0"
     inkscape:deskcolor="#505050"
     inkscape:zoom="0.094136632"
     inkscape:cx="-164.65429"
     inkscape:cy="2236.1114"
     inkscape:window-width="1728"
     inkscape:window-height="1080"
     inkscape:window-x="0"
     inkscape:window-y="37"
     inkscape:window-maximized="0"
     inkscape:current-layer="g3" />
  <g
     fill-rule="evenodd"
     clip-rule="evenodd"
     id="g3"
     transform="translate(117.12383,-186.74289)">
    <path
       d="m -91.736846,189.57689 v 141.989 h 139.841 v -141.989 z m 74.779,17.956 12.8589998,-0.004 c 6.998,0 13.5779996,2.726 18.5270002,7.674 4.947,4.948 7.672,11.526 7.672,18.523 0,14.445 -11.752001,26.197 -26.1990002,26.197 l -12.8589998,0.015 z m -15.72,104.993 h -38.945 v -104.983 h 38.945 z m 15.72,0.11 v -49.379 l 50.348,49.379 z m -55.731,54.105 h 10.306 v -3.691 h -10.306 v -4.902 h 11.163 v -3.691 h -15.593 v 21.527 h 16.095 v -3.691 h -11.665 z m 43.168,-12.284 h -4.43 v 21.527 h 14.735 v -3.691 h -10.305 z m 12.721,3.691 h 6.526 v 17.836 h 4.4289998 v -17.836 h 6.29099995 v -3.691 H -16.799846 Z m 70.686,-2.898 c -2.277,0 -4.113,1.836 -4.113,4.092 a 4.106,4.106 0 0 0 4.113,4.112 4.095,4.095 0 0 0 4.092,-4.112 4.091,4.091 0 0 0 -4.092,-4.092 z m 0,7.711 a 3.605,3.605 0 0 1 -3.609,-3.619 3.6,3.6 0 0 1 3.609,-3.598 3.598,3.598 0 0 1 3.598,3.598 3.605,3.605 0 0 1 -3.598,3.619 z m -136.552,10.454 c -0.03,-1.093 -0.088,-3.927 -0.207,-4.813 -0.236,-1.949 -1.654,-2.48 -2.392,-2.982 1.447,-0.856 2.392,-1.535 2.923,-3.396 0.531,-1.859 0.088,-3.396 -0.207,-4.341 -0.621,-2.332 -2.806,-3.337 -4.961,-3.425 H -99.46985 v 21.527 h 4.430004 v -8.505 h 5.197 c 1.536,0 2.599,0.709 2.658,2.156 -0.059,1.564 -0.059,3.277 0,4.341 0.059,0.709 0.236,1.358 0.591,2.008 h 4.754 v -0.797 c -0.472,-0.297 -0.826,-0.562 -0.826,-1.773 z m -6.32,-9.627 h -6.054 v -5.64 h 5.995 c 1.979,0 2.687,0.886 2.687,2.421 0.267,2.126 -1.594,3.219 -2.628,3.219 z m 43.67,-9.331 h -5.109 l -7.5,21.527 h 4.518 l 1.506,-4.312 h 7.974 l 1.477,4.312 h 4.519 z m -5.376,13.524 2.836,-8.356 2.864,8.356 z m 71.3,-11.191 c -1.801,-1.86 -4.43,-2.688 -7.176,-2.688 -2.746001,0 -5.3750002,0.827 -7.1760002,2.688 -2.008,2.097 -3.189,5.345 -3.189,8.593 0,3.248 1.182,6.497 3.189,8.594 1.801,1.86 4.4299992,2.688 7.1760002,2.688 2.746,0 5.375,-0.827 7.176,-2.688 2.008,-2.097 3.189,-5.346 3.189,-8.594 0,-3.248 -1.181,-6.496 -3.189,-8.593 z m -3.218,14.557 c -1.123,1.034 -2.539,1.447 -3.957,1.447 -1.418001,0 -2.836001,-0.413 -3.9570006,-1.447 -1.4179996,-1.299 -2.1269996,-3.632 -2.1559996,-5.965 0.029,-2.333 0.738,-4.666 2.1559996,-5.965 1.1209996,-1.034 2.5389996,-1.447 3.9570006,-1.447 1.418,0 2.834,0.413 3.957,1.447 1.418,1.299 2.127,3.632 2.156,5.965 -0.029,2.334 -0.738,4.667 -2.156,5.965 z m 27.691,2.068 c -0.029,-1.093 -0.088,-3.927 -0.205,-4.813 -0.236,-1.949 -1.654,-2.48 -2.393,-2.982 1.447,-0.856 2.393,-1.535 2.924,-3.396 0.531,-1.859 0.088,-3.396 -0.207,-4.341 -0.621,-2.332 -2.805,-3.337 -4.961,-3.425 h -11.961 v 21.527 h 4.43 v -8.505 h 5.197 c 1.537,0 2.6,0.709 2.658,2.156 -0.059,1.564 -0.059,3.277 0,4.341 0.059,0.709 0.236,1.358 0.59,2.008 h 4.756 v -0.797 c -0.472,-0.297 -0.828,-0.562 -0.828,-1.773 z m -6.318,-9.627 h -6.055 v -5.64 h 5.996 c 1.979,0 2.688,0.886 2.688,2.421 0.265,2.126 -1.596,3.219 -2.629,3.219 z"
       id="path2"
       style="fill:#ffffff" />
    <path
       d="m 173.113,171.525 c 0,-0.387 -0.172,-0.795 -0.516,-0.988 -0.342,-0.204 -0.729,-0.225 -1.115,-0.225 h -1.998 v 4.585 h 0.559 v -2.116 h 1.031 l 1.311,2.116 h 0.664 l -1.385,-2.116 c 0.816,-0.021 1.449,-0.353 1.449,-1.256 z m -2.211,0.817 h -0.859 v -1.622 h 1.311 c 0.568,0 1.191,0.086 1.191,0.795 0,0.934 -0.998,0.827 -1.643,0.827 z"
       id="path3" />
  </g>
</svg>
